<svg width="374mm" height="315mm" viewBox="0 0 374 315" xmlns="http://www.w3.org/2000/svg" version="1.1" preserveAspectRatio="xMidYMid meet"><g id="svgGroup" stroke-linecap="round" fill-rule="evenodd" font-size="9pt" stroke="#000" stroke-width="0.25mm" fill="none" style="stroke:#000;stroke-width:0.25mm;fill:none"><path d="M 0 229 L 0 236.563 L 3 236.563 L 3 246.688 L 0 246.688 L 0 256.813 L 3 256.813 L 3 266.938 L 0 266.938 L 0 277.063 L 3 277.063 L 3 287.188 L 0 287.188 L 0 297.313 L 3 297.313 L 3 307.438 L 0 307.438 L 0 315 L 7.438 315 L 7.438 312 L 17.563 312 L 17.563 315 L 27.688 315 L 27.688 312 L 37.813 312 L 37.813 315 L 47.938 315 L 47.938 312 L 58.063 312 L 58.063 315 L 68.188 315 L 68.188 312 L 78.313 312 L 78.313 315 L 88.438 315 L 88.438 312 L 98.563 312 L 98.563 315 L 106 315 L 106 307.438 L 103 307.438 L 103 297.313 L 106 297.313 L 106 287.188 L 103 287.188 L 103 277.063 L 106 277.063 L 106 266.938 L 103 266.938 L 103 256.813 L 106 256.813 L 106 246.688 L 103 246.688 L 103 236.563 L 106 236.563 L 106 229 L 98.563 229 L 98.563 232 L 88.438 232 L 88.438 229 L 78.313 229 L 78.313 232 L 68.188 232 L 68.188 229 L 58.063 229 L 58.063 232 L 47.938 232 L 47.938 229 L 37.813 229 L 37.813 232 L 27.688 232 L 27.688 229 L 17.563 229 L 17.563 232 L 7.438 232 L 7.438 229 L 0 229 Z" id="front_outsideCutPath" stroke="#000000" stroke-width="1" style="stroke:#000000;stroke-width:1" vector-effect="non-scaling-stroke"/><path d="M 112 229 L 112 236.563 L 109 236.563 L 109 246.688 L 112 246.688 L 112 256.813 L 109 256.813 L 109 266.938 L 112 266.938 L 112 277.063 L 109 277.063 L 109 287.188 L 112 287.188 L 112 297.313 L 109 297.313 L 109 307.438 L 112 307.438 L 112 315 L 121.188 315 L 121.188 312 L 131.313 312 L 131.313 315 L 141.438 315 L 141.438 312 L 151.563 312 L 151.563 315 L 161.688 315 L 161.688 312 L 171.813 312 L 171.813 315 L 181.938 315 L 181.938 312 L 192.063 312 L 192.063 315 L 202.188 315 L 202.188 312 L 212.313 312 L 212.313 315 L 222.438 315 L 222.438 312 L 232.563 312 L 232.563 315 L 242.688 315 L 242.688 312 L 252.813 312 L 252.813 315 L 262 315 L 262 307.438 L 265 307.438 L 265 297.313 L 262 297.313 L 262 287.188 L 265 287.188 L 265 277.063 L 262 277.063 L 262 266.938 L 265 266.938 L 265 256.813 L 262 256.813 L 262 246.688 L 265 246.688 L 265 236.563 L 262 236.563 L 262 229 L 252.813 229 L 252.813 232 L 242.688 232 L 242.688 229 L 232.563 229 L 232.563 232 L 222.438 232 L 222.438 229 L 212.313 229 L 212.313 232 L 202.188 232 L 202.188 229 L 192.063 229 L 192.063 232 L 181.938 232 L 181.938 229 L 171.813 229 L 171.813 232 L 161.688 232 L 161.688 229 L 151.563 229 L 151.563 232 L 141.438 232 L 141.438 229 L 131.313 229 L 131.313 232 L 121.188 232 L 121.188 229 L 112 229 Z" id="left_outsideCutPath" stroke="#000000" stroke-width="1" style="stroke:#000000;stroke-width:1" vector-effect="non-scaling-stroke"/><path d="M 271 162 L 271 171.188 L 268 171.188 L 268 181.313 L 271 181.313 L 271 191.438 L 268 191.438 L 268 201.563 L 271 201.563 L 271 211.688 L 268 211.688 L 268 221.813 L 271 221.813 L 271 231.938 L 268 231.938 L 268 242.063 L 271 242.063 L 271 252.188 L 268 252.188 L 268 262.313 L 271 262.313 L 271 272.438 L 268 272.438 L 268 282.563 L 271 282.563 L 271 292.688 L 268 292.688 L 268 302.813 L 271 302.813 L 271 312 L 275.438 312 L 275.438 315 L 285.563 315 L 285.563 312 L 295.688 312 L 295.688 315 L 305.813 315 L 305.813 312 L 315.938 312 L 315.938 315 L 326.063 315 L 326.063 312 L 336.188 312 L 336.188 315 L 346.313 315 L 346.313 312 L 356.438 312 L 356.438 315 L 366.563 315 L 366.563 312 L 371 312 L 371 302.813 L 374 302.813 L 374 292.688 L 371 292.688 L 371 282.563 L 374 282.563 L 374 272.438 L 371 272.438 L 371 262.313 L 374 262.313 L 374 252.188 L 371 252.188 L 371 242.063 L 374 242.063 L 374 231.938 L 371 231.938 L 371 221.813 L 374 221.813 L 374 211.688 L 371 211.688 L 371 201.563 L 374 201.563 L 374 191.438 L 371 191.438 L 371 181.313 L 374 181.313 L 374 171.188 L 371 171.188 L 371 162 L 366.563 162 L 366.563 159 L 356.438 159 L 356.438 162 L 346.313 162 L 346.313 159 L 336.188 159 L 336.188 162 L 326.063 162 L 326.063 159 L 315.938 159 L 315.938 162 L 305.813 162 L 305.813 159 L 295.688 159 L 295.688 162 L 285.563 162 L 285.563 159 L 275.438 159 L 275.438 162 L 271 162 Z" id="top_outsideCutPath" stroke="#000000" stroke-width="1" style="stroke:#000000;stroke-width:1" vector-effect="non-scaling-stroke"/><path d="M 0 140 L 0 147.563 L 3 147.563 L 3 157.688 L 0 157.688 L 0 167.813 L 3 167.813 L 3 177.938 L 0 177.938 L 0 188.063 L 3 188.063 L 3 198.188 L 0 198.188 L 0 208.313 L 3 208.313 L 3 218.438 L 0 218.438 L 0 226 L 7.438 226 L 7.438 223 L 17.563 223 L 17.563 226 L 27.688 226 L 27.688 223 L 37.813 223 L 37.813 226 L 47.938 226 L 47.938 223 L 58.063 223 L 58.063 226 L 68.188 226 L 68.188 223 L 78.313 223 L 78.313 226 L 88.438 226 L 88.438 223 L 98.563 223 L 98.563 226 L 106 226 L 106 218.438 L 103 218.438 L 103 208.313 L 106 208.313 L 106 198.188 L 103 198.188 L 103 188.063 L 106 188.063 L 106 177.938 L 103 177.938 L 103 167.813 L 106 167.813 L 106 157.688 L 103 157.688 L 103 147.563 L 106 147.563 L 106 140 L 98.563 140 L 98.563 143 L 88.438 143 L 88.438 140 L 78.313 140 L 78.313 143 L 68.188 143 L 68.188 140 L 58.063 140 L 58.063 143 L 47.938 143 L 47.938 140 L 37.813 140 L 37.813 143 L 27.688 143 L 27.688 140 L 17.563 140 L 17.563 143 L 7.438 143 L 7.438 140 L 0 140 Z" id="back_outsideCutPath" stroke="#000000" stroke-width="1" style="stroke:#000000;stroke-width:1" vector-effect="non-scaling-stroke"/><path d="M 112 140 L 112 147.563 L 109 147.563 L 109 157.688 L 112 157.688 L 112 167.813 L 109 167.813 L 109 177.938 L 112 177.938 L 112 188.063 L 109 188.063 L 109 198.188 L 112 198.188 L 112 208.313 L 109 208.313 L 109 218.438 L 112 218.438 L 112 226 L 121.188 226 L 121.188 223 L 131.313 223 L 131.313 226 L 141.438 226 L 141.438 223 L 151.563 223 L 151.563 226 L 161.688 226 L 161.688 223 L 171.813 223 L 171.813 226 L 181.938 226 L 181.938 223 L 192.063 223 L 192.063 226 L 202.188 226 L 202.188 223 L 212.313 223 L 212.313 226 L 222.438 226 L 222.438 223 L 232.563 223 L 232.563 226 L 242.688 226 L 242.688 223 L 252.813 223 L 252.813 226 L 262 226 L 262 218.438 L 265 218.438 L 265 208.313 L 262 208.313 L 262 198.188 L 265 198.188 L 265 188.063 L 262 188.063 L 262 177.938 L 265 177.938 L 265 167.813 L 262 167.813 L 262 157.688 L 265 157.688 L 265 147.563 L 262 147.563 L 262 140 L 252.813 140 L 252.813 143 L 242.688 143 L 242.688 140 L 232.563 140 L 232.563 143 L 222.438 143 L 222.438 140 L 212.313 140 L 212.313 143 L 202.188 143 L 202.188 140 L 192.063 140 L 192.063 143 L 181.938 143 L 181.938 140 L 171.813 140 L 171.813 143 L 161.688 143 L 161.688 140 L 151.563 140 L 151.563 143 L 141.438 143 L 141.438 140 L 131.313 140 L 131.313 143 L 121.188 143 L 121.188 140 L 112 140 Z" id="right_outsideCutPath" stroke="#000000" stroke-width="1" style="stroke:#000000;stroke-width:1" vector-effect="non-scaling-stroke"/><path d="M 271 3 L 271 12.188 L 268 12.188 L 268 22.313 L 271 22.313 L 271 32.438 L 268 32.438 L 268 42.563 L 271 42.563 L 271 52.688 L 268 52.688 L 268 62.813 L 271 62.813 L 271 72.938 L 268 72.938 L 268 83.063 L 271 83.063 L 271 93.188 L 268 93.188 L 268 103.313 L 271 103.313 L 271 113.438 L 268 113.438 L 268 123.563 L 271 123.563 L 271 133.688 L 268 133.688 L 268 143.813 L 271 143.813 L 271 153 L 275.438 153 L 275.438 156 L 285.563 156 L 285.563 153 L 295.688 153 L 295.688 156 L 305.813 156 L 305.813 153 L 315.938 153 L 315.938 156 L 326.063 156 L 326.063 153 L 336.188 153 L 336.188 156 L 346.313 156 L 346.313 153 L 356.438 153 L 356.438 156 L 366.563 156 L 366.563 153 L 371 153 L 371 143.813 L 374 143.813 L 374 133.688 L 371 133.688 L 371 123.563 L 374 123.563 L 374 113.438 L 371 113.438 L 371 103.313 L 374 103.313 L 374 93.188 L 371 93.188 L 371 83.063 L 374 83.063 L 374 72.938 L 371 72.938 L 371 62.813 L 374 62.813 L 374 52.688 L 371 52.688 L 371 42.563 L 374 42.563 L 374 32.438 L 371 32.438 L 371 22.313 L 374 22.313 L 374 12.188 L 371 12.188 L 371 3 L 366.563 3 L 366.563 0 L 356.438 0 L 356.438 3 L 346.313 3 L 346.313 0 L 336.188 0 L 336.188 3 L 326.063 3 L 326.063 0 L 315.938 0 L 315.938 3 L 305.813 3 L 305.813 0 L 295.688 0 L 295.688 3 L 285.563 3 L 285.563 0 L 275.438 0 L 275.438 3 L 271 3 Z" id="bottom_outsideCutPath" stroke="#000000" stroke-width="1" style="stroke:#000000;stroke-width:1" vector-effect="non-scaling-stroke"/></g></svg>