0
SECTION
2
HEADER
9
$INSUNITS
70
4
0
ENDSEC
0
SECTION
2
TABLES
0
TABLE
2
LTYPE
0
LTYPE
72
65
70
64
2
CONTINUOUS
3
______
73
0
40
0
0
ENDTAB
0
TABLE
2
LAYER
0
ENDTAB
0
ENDSEC
0
SECTION
2
ENTITIES
0
LINE
8
front_outsideCutPath
10
0
20
89
11
0
21
81.4375
0
LINE
8
front_outsideCutPath
10
0
20
81.4375
11
3
21
81.4375
0
LINE
8
front_outsideCutPath
10
3
20
81.4375
11
3
21
71.3125
0
LINE
8
front_outsideCutPath
10
3
20
71.3125
11
0
21
71.3125
0
LINE
8
front_outsideCutPath
10
0
20
71.3125
11
0
21
61.1875
0
LINE
8
front_outsideCutPath
10
0
20
61.1875
11
3
21
61.1875
0
LINE
8
front_outsideCutPath
10
3
20
61.1875
11
3
21
51.0625
0
LINE
8
front_outsideCutPath
10
3
20
51.0625
11
0
21
51.0625
0
LINE
8
front_outsideCutPath
10
0
20
51.0625
11
0
21
40.9375
0
LINE
8
front_outsideCutPath
10
0
20
40.9375
11
3
21
40.9375
0
LINE
8
front_outsideCutPath
10
3
20
40.9375
11
3
21
30.8125
0
LINE
8
front_outsideCutPath
10
3
20
30.8125
11
0
21
30.8125
0
LINE
8
front_outsideCutPath
10
0
20
30.8125
11
0
21
20.6875
0
LINE
8
front_outsideCutPath
10
0
20
20.6875
11
3
21
20.6875
0
LINE
8
front_outsideCutPath
10
3
20
20.6875
11
3
21
10.5625
0
LINE
8
front_outsideCutPath
10
3
20
10.5625
11
0
21
10.5625
0
LINE
8
front_outsideCutPath
10
0
20
10.5625
11
0
21
3
0
LINE
8
front_outsideCutPath
10
0
20
3
11
7.4375
21
3
0
LINE
8
front_outsideCutPath
10
7.4375
20
3
11
7.4375
21
6
0
LINE
8
front_outsideCutPath
10
7.4375
20
6
11
17.5625
21
6
0
LINE
8
front_outsideCutPath
10
17.5625
20
6
11
17.5625
21
3
0
LINE
8
front_outsideCutPath
10
17.5625
20
3
11
27.6875
21
3
0
LINE
8
front_outsideCutPath
10
27.6875
20
3
11
27.6875
21
6
0
LINE
8
front_outsideCutPath
10
27.6875
20
6
11
37.8125
21
6
0
LINE
8
front_outsideCutPath
10
37.8125
20
6
11
37.8125
21
3
0
LINE
8
front_outsideCutPath
10
37.8125
20
3
11
47.9375
21
3
0
LINE
8
front_outsideCutPath
10
47.9375
20
3
11
47.9375
21
6
0
LINE
8
front_outsideCutPath
10
47.9375
20
6
11
58.0625
21
6
0
LINE
8
front_outsideCutPath
10
58.0625
20
6
11
58.0625
21
3
0
LINE
8
front_outsideCutPath
10
58.0625
20
3
11
68.1875
21
3
0
LINE
8
front_outsideCutPath
10
68.1875
20
3
11
68.1875
21
6
0
LINE
8
front_outsideCutPath
10
68.1875
20
6
11
78.3125
21
6
0
LINE
8
front_outsideCutPath
10
78.3125
20
6
11
78.3125
21
3
0
LINE
8
front_outsideCutPath
10
78.3125
20
3
11
88.4375
21
3
0
LINE
8
front_outsideCutPath
10
88.4375
20
3
11
88.4375
21
6
0
LINE
8
front_outsideCutPath
10
88.4375
20
6
11
98.5625
21
6
0
LINE
8
front_outsideCutPath
10
98.5625
20
6
11
98.5625
21
3
0
LINE
8
front_outsideCutPath
10
98.5625
20
3
11
106
21
3
0
LINE
8
front_outsideCutPath
10
106
20
3
11
106
21
10.5625
0
LINE
8
front_outsideCutPath
10
106
20
10.5625
11
103
21
10.5625
0
LINE
8
front_outsideCutPath
10
103
20
10.5625
11
103
21
20.6875
0
LINE
8
front_outsideCutPath
10
103
20
20.6875
11
106
21
20.6875
0
LINE
8
front_outsideCutPath
10
106
20
20.6875
11
106
21
30.8125
0
LINE
8
front_outsideCutPath
10
106
20
30.8125
11
103
21
30.8125
0
LINE
8
front_outsideCutPath
10
103
20
30.8125
11
103
21
40.9375
0
LINE
8
front_outsideCutPath
10
103
20
40.9375
11
106
21
40.9375
0
LINE
8
front_outsideCutPath
10
106
20
40.9375
11
106
21
51.0625
0
LINE
8
front_outsideCutPath
10
106
20
51.0625
11
103
21
51.0625
0
LINE
8
front_outsideCutPath
10
103
20
51.0625
11
103
21
61.1875
0
LINE
8
front_outsideCutPath
10
103
20
61.1875
11
106
21
61.1875
0
LINE
8
front_outsideCutPath
10
106
20
61.1875
11
106
21
71.3125
0
LINE
8
front_outsideCutPath
10
106
20
71.3125
11
103
21
71.3125
0
LINE
8
front_outsideCutPath
10
103
20
71.3125
11
103
21
81.4375
0
LINE
8
front_outsideCutPath
10
103
20
81.4375
11
106
21
81.4375
0
LINE
8
front_outsideCutPath
10
106
20
81.4375
11
106
21
89
0
LINE
8
front_outsideCutPath
10
106
20
89
11
98.5625
21
89
0
LINE
8
front_outsideCutPath
10
98.5625
20
89
11
98.5625
21
86
0
LINE
8
front_outsideCutPath
10
98.5625
20
86
11
88.4375
21
86
0
LINE
8
front_outsideCutPath
10
88.4375
20
86
11
88.4375
21
89
0
LINE
8
front_outsideCutPath
10
88.4375
20
89
11
78.3125
21
89
0
LINE
8
front_outsideCutPath
10
78.3125
20
89
11
78.3125
21
86
0
LINE
8
front_outsideCutPath
10
78.3125
20
86
11
68.1875
21
86
0
LINE
8
front_outsideCutPath
10
68.1875
20
86
11
68.1875
21
89
0
LINE
8
front_outsideCutPath
10
68.1875
20
89
11
58.0625
21
89
0
LINE
8
front_outsideCutPath
10
58.0625
20
89
11
58.0625
21
86
0
LINE
8
front_outsideCutPath
10
58.0625
20
86
11
47.9375
21
86
0
LINE
8
front_outsideCutPath
10
47.9375
20
86
11
47.9375
21
89
0
LINE
8
front_outsideCutPath
10
47.9375
20
89
11
37.8125
21
89
0
LINE
8
front_outsideCutPath
10
37.8125
20
89
11
37.8125
21
86
0
LINE
8
front_outsideCutPath
10
37.8125
20
86
11
27.6875
21
86
0
LINE
8
front_outsideCutPath
10
27.6875
20
86
11
27.6875
21
89
0
LINE
8
front_outsideCutPath
10
27.6875
20
89
11
17.5625
21
89
0
LINE
8
front_outsideCutPath
10
17.5625
20
89
11
17.5625
21
86
0
LINE
8
front_outsideCutPath
10
17.5625
20
86
11
7.4375
21
86
0
LINE
8
front_outsideCutPath
10
7.4375
20
86
11
7.4375
21
89
0
LINE
8
front_outsideCutPath
10
7.4375
20
89
11
0
21
89
0
LINE
8
left_outsideCutPath
10
112
20
89
11
112
21
81.4375
0
LINE
8
left_outsideCutPath
10
112
20
81.4375
11
109
21
81.4375
0
LINE
8
left_outsideCutPath
10
109
20
81.4375
11
109
21
71.3125
0
LINE
8
left_outsideCutPath
10
109
20
71.3125
11
112
21
71.3125
0
LINE
8
left_outsideCutPath
10
112
20
71.3125
11
112
21
61.1875
0
LINE
8
left_outsideCutPath
10
112
20
61.1875
11
109
21
61.1875
0
LINE
8
left_outsideCutPath
10
109
20
61.1875
11
109
21
51.0625
0
LINE
8
left_outsideCutPath
10
109
20
51.0625
11
112
21
51.0625
0
LINE
8
left_outsideCutPath
10
112
20
51.0625
11
112
21
40.9375
0
LINE
8
left_outsideCutPath
10
112
20
40.9375
11
109
21
40.9375
0
LINE
8
left_outsideCutPath
10
109
20
40.9375
11
109
21
30.8125
0
LINE
8
left_outsideCutPath
10
109
20
30.8125
11
112
21
30.8125
0
LINE
8
left_outsideCutPath
10
112
20
30.8125
11
112
21
20.6875
0
LINE
8
left_outsideCutPath
10
112
20
20.6875
11
109
21
20.6875
0
LINE
8
left_outsideCutPath
10
109
20
20.6875
11
109
21
10.5625
0
LINE
8
left_outsideCutPath
10
109
20
10.5625
11
112
21
10.5625
0
LINE
8
left_outsideCutPath
10
112
20
10.5625
11
112
21
3
0
LINE
8
left_outsideCutPath
10
112
20
3
11
121.1875
21
3
0
LINE
8
left_outsideCutPath
10
121.1875
20
3
11
121.1875
21
6
0
LINE
8
left_outsideCutPath
10
121.1875
20
6
11
131.3125
21
6
0
LINE
8
left_outsideCutPath
10
131.3125
20
6
11
131.3125
21
3
0
LINE
8
left_outsideCutPath
10
131.3125
20
3
11
141.4375
21
3
0
LINE
8
left_outsideCutPath
10
141.4375
20
3
11
141.4375
21
6
0
LINE
8
left_outsideCutPath
10
141.4375
20
6
11
151.5625
21
6
0
LINE
8
left_outsideCutPath
10
151.5625
20
6
11
151.5625
21
3
0
LINE
8
left_outsideCutPath
10
151.5625
20
3
11
161.6875
21
3
0
LINE
8
left_outsideCutPath
10
161.6875
20
3
11
161.6875
21
6
0
LINE
8
left_outsideCutPath
10
161.6875
20
6
11
171.8125
21
6
0
LINE
8
left_outsideCutPath
10
171.8125
20
6
11
171.8125
21
3
0
LINE
8
left_outsideCutPath
10
171.8125
20
3
11
181.9375
21
3
0
LINE
8
left_outsideCutPath
10
181.9375
20
3
11
181.9375
21
6
0
LINE
8
left_outsideCutPath
10
181.9375
20
6
11
192.0625
21
6
0
LINE
8
left_outsideCutPath
10
192.0625
20
6
11
192.0625
21
3
0
LINE
8
left_outsideCutPath
10
192.0625
20
3
11
202.1875
21
3
0
LINE
8
left_outsideCutPath
10
202.1875
20
3
11
202.1875
21
6
0
LINE
8
left_outsideCutPath
10
202.1875
20
6
11
212.3125
21
6
0
LINE
8
left_outsideCutPath
10
212.3125
20
6
11
212.3125
21
3
0
LINE
8
left_outsideCutPath
10
212.3125
20
3
11
222.4375
21
3
0
LINE
8
left_outsideCutPath
10
222.4375
20
3
11
222.4375
21
6
0
LINE
8
left_outsideCutPath
10
222.4375
20
6
11
232.5625
21
6
0
LINE
8
left_outsideCutPath
10
232.5625
20
6
11
232.5625
21
3
0
LINE
8
left_outsideCutPath
10
232.5625
20
3
11
242.6875
21
3
0
LINE
8
left_outsideCutPath
10
242.6875
20
3
11
242.6875
21
6
0
LINE
8
left_outsideCutPath
10
242.6875
20
6
11
252.8125
21
6
0
LINE
8
left_outsideCutPath
10
252.8125
20
6
11
252.8125
21
3
0
LINE
8
left_outsideCutPath
10
252.8125
20
3
11
262
21
3
0
LINE
8
left_outsideCutPath
10
262
20
3
11
262
21
10.5625
0
LINE
8
left_outsideCutPath
10
262
20
10.5625
11
265
21
10.5625
0
LINE
8
left_outsideCutPath
10
265
20
10.5625
11
265
21
20.6875
0
LINE
8
left_outsideCutPath
10
265
20
20.6875
11
262
21
20.6875
0
LINE
8
left_outsideCutPath
10
262
20
20.6875
11
262
21
30.8125
0
LINE
8
left_outsideCutPath
10
262
20
30.8125
11
265
21
30.8125
0
LINE
8
left_outsideCutPath
10
265
20
30.8125
11
265
21
40.9375
0
LINE
8
left_outsideCutPath
10
265
20
40.9375
11
262
21
40.9375
0
LINE
8
left_outsideCutPath
10
262
20
40.9375
11
262
21
51.0625
0
LINE
8
left_outsideCutPath
10
262
20
51.0625
11
265
21
51.0625
0
LINE
8
left_outsideCutPath
10
265
20
51.0625
11
265
21
61.1875
0
LINE
8
left_outsideCutPath
10
265
20
61.1875
11
262
21
61.1875
0
LINE
8
left_outsideCutPath
10
262
20
61.1875
11
262
21
71.3125
0
LINE
8
left_outsideCutPath
10
262
20
71.3125
11
265
21
71.3125
0
LINE
8
left_outsideCutPath
10
265
20
71.3125
11
265
21
81.4375
0
LINE
8
left_outsideCutPath
10
265
20
81.4375
11
262
21
81.4375
0
LINE
8
left_outsideCutPath
10
262
20
81.4375
11
262
21
89
0
LINE
8
left_outsideCutPath
10
262
20
89
11
252.8125
21
89
0
LINE
8
left_outsideCutPath
10
252.8125
20
89
11
252.8125
21
86
0
LINE
8
left_outsideCutPath
10
252.8125
20
86
11
242.6875
21
86
0
LINE
8
left_outsideCutPath
10
242.6875
20
86
11
242.6875
21
89
0
LINE
8
left_outsideCutPath
10
242.6875
20
89
11
232.5625
21
89
0
LINE
8
left_outsideCutPath
10
232.5625
20
89
11
232.5625
21
86
0
LINE
8
left_outsideCutPath
10
232.5625
20
86
11
222.4375
21
86
0
LINE
8
left_outsideCutPath
10
222.4375
20
86
11
222.4375
21
89
0
LINE
8
left_outsideCutPath
10
222.4375
20
89
11
212.3125
21
89
0
LINE
8
left_outsideCutPath
10
212.3125
20
89
11
212.3125
21
86
0
LINE
8
left_outsideCutPath
10
212.3125
20
86
11
202.1875
21
86
0
LINE
8
left_outsideCutPath
10
202.1875
20
86
11
202.1875
21
89
0
LINE
8
left_outsideCutPath
10
202.1875
20
89
11
192.0625
21
89
0
LINE
8
left_outsideCutPath
10
192.0625
20
89
11
192.0625
21
86
0
LINE
8
left_outsideCutPath
10
192.0625
20
86
11
181.9375
21
86
0
LINE
8
left_outsideCutPath
10
181.9375
20
86
11
181.9375
21
89
0
LINE
8
left_outsideCutPath
10
181.9375
20
89
11
171.8125
21
89
0
LINE
8
left_outsideCutPath
10
171.8125
20
89
11
171.8125
21
86
0
LINE
8
left_outsideCutPath
10
171.8125
20
86
11
161.6875
21
86
0
LINE
8
left_outsideCutPath
10
161.6875
20
86
11
161.6875
21
89
0
LINE
8
left_outsideCutPath
10
161.6875
20
89
11
151.5625
21
89
0
LINE
8
left_outsideCutPath
10
151.5625
20
89
11
151.5625
21
86
0
LINE
8
left_outsideCutPath
10
151.5625
20
86
11
141.4375
21
86
0
LINE
8
left_outsideCutPath
10
141.4375
20
86
11
141.4375
21
89
0
LINE
8
left_outsideCutPath
10
141.4375
20
89
11
131.3125
21
89
0
LINE
8
left_outsideCutPath
10
131.3125
20
89
11
131.3125
21
86
0
LINE
8
left_outsideCutPath
10
131.3125
20
86
11
121.1875
21
86
0
LINE
8
left_outsideCutPath
10
121.1875
20
86
11
121.1875
21
89
0
LINE
8
left_outsideCutPath
10
121.1875
20
89
11
112
21
89
0
LINE
8
top_outsideCutPath
10
271
20
156
11
271
21
146.8125
0
LINE
8
top_outsideCutPath
10
271
20
146.8125
11
268
21
146.8125
0
LINE
8
top_outsideCutPath
10
268
20
146.8125
11
268
21
136.6875
0
LINE
8
top_outsideCutPath
10
268
20
136.6875
11
271
21
136.6875
0
LINE
8
top_outsideCutPath
10
271
20
136.6875
11
271
21
126.5625
0
LINE
8
top_outsideCutPath
10
271
20
126.5625
11
268
21
126.5625
0
LINE
8
top_outsideCutPath
10
268
20
126.5625
11
268
21
116.4375
0
LINE
8
top_outsideCutPath
10
268
20
116.4375
11
271
21
116.4375
0
LINE
8
top_outsideCutPath
10
271
20
116.4375
11
271
21
106.3125
0
LINE
8
top_outsideCutPath
10
271
20
106.3125
11
268
21
106.3125
0
LINE
8
top_outsideCutPath
10
268
20
106.3125
11
268
21
96.1875
0
LINE
8
top_outsideCutPath
10
268
20
96.1875
11
271
21
96.1875
0
LINE
8
top_outsideCutPath
10
271
20
96.1875
11
271
21
86.0625
0
LINE
8
top_outsideCutPath
10
271
20
86.0625
11
268
21
86.0625
0
LINE
8
top_outsideCutPath
10
268
20
86.0625
11
268
21
75.9375
0
LINE
8
top_outsideCutPath
10
268
20
75.9375
11
271
21
75.9375
0
LINE
8
top_outsideCutPath
10
271
20
75.9375
11
271
21
65.8125
0
LINE
8
top_outsideCutPath
10
271
20
65.8125
11
268
21
65.8125
0
LINE
8
top_outsideCutPath
10
268
20
65.8125
11
268
21
55.6875
0
LINE
8
top_outsideCutPath
10
268
20
55.6875
11
271
21
55.6875
0
LINE
8
top_outsideCutPath
10
271
20
55.6875
11
271
21
45.5625
0
LINE
8
top_outsideCutPath
10
271
20
45.5625
11
268
21
45.5625
0
LINE
8
top_outsideCutPath
10
268
20
45.5625
11
268
21
35.4375
0
LINE
8
top_outsideCutPath
10
268
20
35.4375
11
271
21
35.4375
0
LINE
8
top_outsideCutPath
10
271
20
35.4375
11
271
21
25.3125
0
LINE
8
top_outsideCutPath
10
271
20
25.3125
11
268
21
25.3125
0
LINE
8
top_outsideCutPath
10
268
20
25.3125
11
268
21
15.1875
0
LINE
8
top_outsideCutPath
10
268
20
15.1875
11
271
21
15.1875
0
LINE
8
top_outsideCutPath
10
271
20
15.1875
11
271
21
6
0
LINE
8
top_outsideCutPath
10
271
20
6
11
275.4375
21
6
0
LINE
8
top_outsideCutPath
10
275.4375
20
6
11
275.4375
21
3
0
LINE
8
top_outsideCutPath
10
275.4375
20
3
11
285.5625
21
3
0
LINE
8
top_outsideCutPath
10
285.5625
20
3
11
285.5625
21
6
0
LINE
8
top_outsideCutPath
10
285.5625
20
6
11
295.6875
21
6
0
LINE
8
top_outsideCutPath
10
295.6875
20
6
11
295.6875
21
3
0
LINE
8
top_outsideCutPath
10
295.6875
20
3
11
305.8125
21
3
0
LINE
8
top_outsideCutPath
10
305.8125
20
3
11
305.8125
21
6
0
LINE
8
top_outsideCutPath
10
305.8125
20
6
11
315.9375
21
6
0
LINE
8
top_outsideCutPath
10
315.9375
20
6
11
315.9375
21
3
0
LINE
8
top_outsideCutPath
10
315.9375
20
3
11
326.0625
21
3
0
LINE
8
top_outsideCutPath
10
326.0625
20
3
11
326.0625
21
6
0
LINE
8
top_outsideCutPath
10
326.0625
20
6
11
336.1875
21
6
0
LINE
8
top_outsideCutPath
10
336.1875
20
6
11
336.1875
21
3
0
LINE
8
top_outsideCutPath
10
336.1875
20
3
11
346.3125
21
3
0
LINE
8
top_outsideCutPath
10
346.3125
20
3
11
346.3125
21
6
0
LINE
8
top_outsideCutPath
10
346.3125
20
6
11
356.4375
21
6
0
LINE
8
top_outsideCutPath
10
356.4375
20
6
11
356.4375
21
3
0
LINE
8
top_outsideCutPath
10
356.4375
20
3
11
366.5625
21
3
0
LINE
8
top_outsideCutPath
10
366.5625
20
3
11
366.5625
21
6
0
LINE
8
top_outsideCutPath
10
366.5625
20
6
11
371
21
6
0
LINE
8
top_outsideCutPath
10
371
20
6
11
371
21
15.1875
0
LINE
8
top_outsideCutPath
10
371
20
15.1875
11
374
21
15.1875
0
LINE
8
top_outsideCutPath
10
374
20
15.1875
11
374
21
25.3125
0
LINE
8
top_outsideCutPath
10
374
20
25.3125
11
371
21
25.3125
0
LINE
8
top_outsideCutPath
10
371
20
25.3125
11
371
21
35.4375
0
LINE
8
top_outsideCutPath
10
371
20
35.4375
11
374
21
35.4375
0
LINE
8
top_outsideCutPath
10
374
20
35.4375
11
374
21
45.5625
0
LINE
8
top_outsideCutPath
10
374
20
45.5625
11
371
21
45.5625
0
LINE
8
top_outsideCutPath
10
371
20
45.5625
11
371
21
55.6875
0
LINE
8
top_outsideCutPath
10
371
20
55.6875
11
374
21
55.6875
0
LINE
8
top_outsideCutPath
10
374
20
55.6875
11
374
21
65.8125
0
LINE
8
top_outsideCutPath
10
374
20
65.8125
11
371
21
65.8125
0
LINE
8
top_outsideCutPath
10
371
20
65.8125
11
371
21
75.9375
0
LINE
8
top_outsideCutPath
10
371
20
75.9375
11
374
21
75.9375
0
LINE
8
top_outsideCutPath
10
374
20
75.9375
11
374
21
86.0625
0
LINE
8
top_outsideCutPath
10
374
20
86.0625
11
371
21
86.0625
0
LINE
8
top_outsideCutPath
10
371
20
86.0625
11
371
21
96.1875
0
LINE
8
top_outsideCutPath
10
371
20
96.1875
11
374
21
96.1875
0
LINE
8
top_outsideCutPath
10
374
20
96.1875
11
374
21
106.3125
0
LINE
8
top_outsideCutPath
10
374
20
106.3125
11
371
21
106.3125
0
LINE
8
top_outsideCutPath
10
371
20
106.3125
11
371
21
116.4375
0
LINE
8
top_outsideCutPath
10
371
20
116.4375
11
374
21
116.4375
0
LINE
8
top_outsideCutPath
10
374
20
116.4375
11
374
21
126.5625
0
LINE
8
top_outsideCutPath
10
374
20
126.5625
11
371
21
126.5625
0
LINE
8
top_outsideCutPath
10
371
20
126.5625
11
371
21
136.6875
0
LINE
8
top_outsideCutPath
10
371
20
136.6875
11
374
21
136.6875
0
LINE
8
top_outsideCutPath
10
374
20
136.6875
11
374
21
146.8125
0
LINE
8
top_outsideCutPath
10
374
20
146.8125
11
371
21
146.8125
0
LINE
8
top_outsideCutPath
10
371
20
146.8125
11
371
21
156
0
LINE
8
top_outsideCutPath
10
371
20
156
11
366.5625
21
156
0
LINE
8
top_outsideCutPath
10
366.5625
20
156
11
366.5625
21
159
0
LINE
8
top_outsideCutPath
10
366.5625
20
159
11
356.4375
21
159
0
LINE
8
top_outsideCutPath
10
356.4375
20
159
11
356.4375
21
156
0
LINE
8
top_outsideCutPath
10
356.4375
20
156
11
346.3125
21
156
0
LINE
8
top_outsideCutPath
10
346.3125
20
156
11
346.3125
21
159
0
LINE
8
top_outsideCutPath
10
346.3125
20
159
11
336.1875
21
159
0
LINE
8
top_outsideCutPath
10
336.1875
20
159
11
336.1875
21
156
0
LINE
8
top_outsideCutPath
10
336.1875
20
156
11
326.0625
21
156
0
LINE
8
top_outsideCutPath
10
326.0625
20
156
11
326.0625
21
159
0
LINE
8
top_outsideCutPath
10
326.0625
20
159
11
315.9375
21
159
0
LINE
8
top_outsideCutPath
10
315.9375
20
159
11
315.9375
21
156
0
LINE
8
top_outsideCutPath
10
315.9375
20
156
11
305.8125
21
156
0
LINE
8
top_outsideCutPath
10
305.8125
20
156
11
305.8125
21
159
0
LINE
8
top_outsideCutPath
10
305.8125
20
159
11
295.6875
21
159
0
LINE
8
top_outsideCutPath
10
295.6875
20
159
11
295.6875
21
156
0
LINE
8
top_outsideCutPath
10
295.6875
20
156
11
285.5625
21
156
0
LINE
8
top_outsideCutPath
10
285.5625
20
156
11
285.5625
21
159
0
LINE
8
top_outsideCutPath
10
285.5625
20
159
11
275.4375
21
159
0
LINE
8
top_outsideCutPath
10
275.4375
20
159
11
275.4375
21
156
0
LINE
8
top_outsideCutPath
10
275.4375
20
156
11
271
21
156
0
LINE
8
back_outsideCutPath
10
0
20
178
11
0
21
170.4375
0
LINE
8
back_outsideCutPath
10
0
20
170.4375
11
3
21
170.4375
0
LINE
8
back_outsideCutPath
10
3
20
170.4375
11
3
21
160.3125
0
LINE
8
back_outsideCutPath
10
3
20
160.3125
11
0
21
160.3125
0
LINE
8
back_outsideCutPath
10
0
20
160.3125
11
0
21
150.1875
0
LINE
8
back_outsideCutPath
10
0
20
150.1875
11
3
21
150.1875
0
LINE
8
back_outsideCutPath
10
3
20
150.1875
11
3
21
140.0625
0
LINE
8
back_outsideCutPath
10
3
20
140.0625
11
0
21
140.0625
0
LINE
8
back_outsideCutPath
10
0
20
140.0625
11
0
21
129.9375
0
LINE
8
back_outsideCutPath
10
0
20
129.9375
11
3
21
129.9375
0
LINE
8
back_outsideCutPath
10
3
20
129.9375
11
3
21
119.8125
0
LINE
8
back_outsideCutPath
10
3
20
119.8125
11
0
21
119.8125
0
LINE
8
back_outsideCutPath
10
0
20
119.8125
11
0
21
109.6875
0
LINE
8
back_outsideCutPath
10
0
20
109.6875
11
3
21
109.6875
0
LINE
8
back_outsideCutPath
10
3
20
109.6875
11
3
21
99.5625
0
LINE
8
back_outsideCutPath
10
3
20
99.5625
11
0
21
99.5625
0
LINE
8
back_outsideCutPath
10
0
20
99.5625
11
0
21
92
0
LINE
8
back_outsideCutPath
10
0
20
92
11
7.4375
21
92
0
LINE
8
back_outsideCutPath
10
7.4375
20
92
11
7.4375
21
95
0
LINE
8
back_outsideCutPath
10
7.4375
20
95
11
17.5625
21
95
0
LINE
8
back_outsideCutPath
10
17.5625
20
95
11
17.5625
21
92
0
LINE
8
back_outsideCutPath
10
17.5625
20
92
11
27.6875
21
92
0
LINE
8
back_outsideCutPath
10
27.6875
20
92
11
27.6875
21
95
0
LINE
8
back_outsideCutPath
10
27.6875
20
95
11
37.8125
21
95
0
LINE
8
back_outsideCutPath
10
37.8125
20
95
11
37.8125
21
92
0
LINE
8
back_outsideCutPath
10
37.8125
20
92
11
47.9375
21
92
0
LINE
8
back_outsideCutPath
10
47.9375
20
92
11
47.9375
21
95
0
LINE
8
back_outsideCutPath
10
47.9375
20
95
11
58.0625
21
95
0
LINE
8
back_outsideCutPath
10
58.0625
20
95
11
58.0625
21
92
0
LINE
8
back_outsideCutPath
10
58.0625
20
92
11
68.1875
21
92
0
LINE
8
back_outsideCutPath
10
68.1875
20
92
11
68.1875
21
95
0
LINE
8
back_outsideCutPath
10
68.1875
20
95
11
78.3125
21
95
0
LINE
8
back_outsideCutPath
10
78.3125
20
95
11
78.3125
21
92
0
LINE
8
back_outsideCutPath
10
78.3125
20
92
11
88.4375
21
92
0
LINE
8
back_outsideCutPath
10
88.4375
20
92
11
88.4375
21
95
0
LINE
8
back_outsideCutPath
10
88.4375
20
95
11
98.5625
21
95
0
LINE
8
back_outsideCutPath
10
98.5625
20
95
11
98.5625
21
92
0
LINE
8
back_outsideCutPath
10
98.5625
20
92
11
106
21
92
0
LINE
8
back_outsideCutPath
10
106
20
92
11
106
21
99.5625
0
LINE
8
back_outsideCutPath
10
106
20
99.5625
11
103
21
99.5625
0
LINE
8
back_outsideCutPath
10
103
20
99.5625
11
103
21
109.6875
0
LINE
8
back_outsideCutPath
10
103
20
109.6875
11
106
21
109.6875
0
LINE
8
back_outsideCutPath
10
106
20
109.6875
11
106
21
119.8125
0
LINE
8
back_outsideCutPath
10
106
20
119.8125
11
103
21
119.8125
0
LINE
8
back_outsideCutPath
10
103
20
119.8125
11
103
21
129.9375
0
LINE
8
back_outsideCutPath
10
103
20
129.9375
11
106
21
129.9375
0
LINE
8
back_outsideCutPath
10
106
20
129.9375
11
106
21
140.0625
0
LINE
8
back_outsideCutPath
10
106
20
140.0625
11
103
21
140.0625
0
LINE
8
back_outsideCutPath
10
103
20
140.0625
11
103
21
150.1875
0
LINE
8
back_outsideCutPath
10
103
20
150.1875
11
106
21
150.1875
0
LINE
8
back_outsideCutPath
10
106
20
150.1875
11
106
21
160.3125
0
LINE
8
back_outsideCutPath
10
106
20
160.3125
11
103
21
160.3125
0
LINE
8
back_outsideCutPath
10
103
20
160.3125
11
103
21
170.4375
0
LINE
8
back_outsideCutPath
10
103
20
170.4375
11
106
21
170.4375
0
LINE
8
back_outsideCutPath
10
106
20
170.4375
11
106
21
178
0
LINE
8
back_outsideCutPath
10
106
20
178
11
98.5625
21
178
0
LINE
8
back_outsideCutPath
10
98.5625
20
178
11
98.5625
21
175
0
LINE
8
back_outsideCutPath
10
98.5625
20
175
11
88.4375
21
175
0
LINE
8
back_outsideCutPath
10
88.4375
20
175
11
88.4375
21
178
0
LINE
8
back_outsideCutPath
10
88.4375
20
178
11
78.3125
21
178
0
LINE
8
back_outsideCutPath
10
78.3125
20
178
11
78.3125
21
175
0
LINE
8
back_outsideCutPath
10
78.3125
20
175
11
68.1875
21
175
0
LINE
8
back_outsideCutPath
10
68.1875
20
175
11
68.1875
21
178
0
LINE
8
back_outsideCutPath
10
68.1875
20
178
11
58.0625
21
178
0
LINE
8
back_outsideCutPath
10
58.0625
20
178
11
58.0625
21
175
0
LINE
8
back_outsideCutPath
10
58.0625
20
175
11
47.9375
21
175
0
LINE
8
back_outsideCutPath
10
47.9375
20
175
11
47.9375
21
178
0
LINE
8
back_outsideCutPath
10
47.9375
20
178
11
37.8125
21
178
0
LINE
8
back_outsideCutPath
10
37.8125
20
178
11
37.8125
21
175
0
LINE
8
back_outsideCutPath
10
37.8125
20
175
11
27.6875
21
175
0
LINE
8
back_outsideCutPath
10
27.6875
20
175
11
27.6875
21
178
0
LINE
8
back_outsideCutPath
10
27.6875
20
178
11
17.5625
21
178
0
LINE
8
back_outsideCutPath
10
17.5625
20
178
11
17.5625
21
175
0
LINE
8
back_outsideCutPath
10
17.5625
20
175
11
7.4375
21
175
0
LINE
8
back_outsideCutPath
10
7.4375
20
175
11
7.4375
21
178
0
LINE
8
back_outsideCutPath
10
7.4375
20
178
11
0
21
178
0
LINE
8
right_outsideCutPath
10
112
20
178
11
112
21
170.4375
0
LINE
8
right_outsideCutPath
10
112
20
170.4375
11
109
21
170.4375
0
LINE
8
right_outsideCutPath
10
109
20
170.4375
11
109
21
160.3125
0
LINE
8
right_outsideCutPath
10
109
20
160.3125
11
112
21
160.3125
0
LINE
8
right_outsideCutPath
10
112
20
160.3125
11
112
21
150.1875
0
LINE
8
right_outsideCutPath
10
112
20
150.1875
11
109
21
150.1875
0
LINE
8
right_outsideCutPath
10
109
20
150.1875
11
109
21
140.0625
0
LINE
8
right_outsideCutPath
10
109
20
140.0625
11
112
21
140.0625
0
LINE
8
right_outsideCutPath
10
112
20
140.0625
11
112
21
129.9375
0
LINE
8
right_outsideCutPath
10
112
20
129.9375
11
109
21
129.9375
0
LINE
8
right_outsideCutPath
10
109
20
129.9375
11
109
21
119.8125
0
LINE
8
right_outsideCutPath
10
109
20
119.8125
11
112
21
119.8125
0
LINE
8
right_outsideCutPath
10
112
20
119.8125
11
112
21
109.6875
0
LINE
8
right_outsideCutPath
10
112
20
109.6875
11
109
21
109.6875
0
LINE
8
right_outsideCutPath
10
109
20
109.6875
11
109
21
99.5625
0
LINE
8
right_outsideCutPath
10
109
20
99.5625
11
112
21
99.5625
0
LINE
8
right_outsideCutPath
10
112
20
99.5625
11
112
21
92
0
LINE
8
right_outsideCutPath
10
112
20
92
11
121.1875
21
92
0
LINE
8
right_outsideCutPath
10
121.1875
20
92
11
121.1875
21
95
0
LINE
8
right_outsideCutPath
10
121.1875
20
95
11
131.3125
21
95
0
LINE
8
right_outsideCutPath
10
131.3125
20
95
11
131.3125
21
92
0
LINE
8
right_outsideCutPath
10
131.3125
20
92
11
141.4375
21
92
0
LINE
8
right_outsideCutPath
10
141.4375
20
92
11
141.4375
21
95
0
LINE
8
right_outsideCutPath
10
141.4375
20
95
11
151.5625
21
95
0
LINE
8
right_outsideCutPath
10
151.5625
20
95
11
151.5625
21
92
0
LINE
8
right_outsideCutPath
10
151.5625
20
92
11
161.6875
21
92
0
LINE
8
right_outsideCutPath
10
161.6875
20
92
11
161.6875
21
95
0
LINE
8
right_outsideCutPath
10
161.6875
20
95
11
171.8125
21
95
0
LINE
8
right_outsideCutPath
10
171.8125
20
95
11
171.8125
21
92
0
LINE
8
right_outsideCutPath
10
171.8125
20
92
11
181.9375
21
92
0
LINE
8
right_outsideCutPath
10
181.9375
20
92
11
181.9375
21
95
0
LINE
8
right_outsideCutPath
10
181.9375
20
95
11
192.0625
21
95
0
LINE
8
right_outsideCutPath
10
192.0625
20
95
11
192.0625
21
92
0
LINE
8
right_outsideCutPath
10
192.0625
20
92
11
202.1875
21
92
0
LINE
8
right_outsideCutPath
10
202.1875
20
92
11
202.1875
21
95
0
LINE
8
right_outsideCutPath
10
202.1875
20
95
11
212.3125
21
95
0
LINE
8
right_outsideCutPath
10
212.3125
20
95
11
212.3125
21
92
0
LINE
8
right_outsideCutPath
10
212.3125
20
92
11
222.4375
21
92
0
LINE
8
right_outsideCutPath
10
222.4375
20
92
11
222.4375
21
95
0
LINE
8
right_outsideCutPath
10
222.4375
20
95
11
232.5625
21
95
0
LINE
8
right_outsideCutPath
10
232.5625
20
95
11
232.5625
21
92
0
LINE
8
right_outsideCutPath
10
232.5625
20
92
11
242.6875
21
92
0
LINE
8
right_outsideCutPath
10
242.6875
20
92
11
242.6875
21
95
0
LINE
8
right_outsideCutPath
10
242.6875
20
95
11
252.8125
21
95
0
LINE
8
right_outsideCutPath
10
252.8125
20
95
11
252.8125
21
92
0
LINE
8
right_outsideCutPath
10
252.8125
20
92
11
262
21
92
0
LINE
8
right_outsideCutPath
10
262
20
92
11
262
21
99.5625
0
LINE
8
right_outsideCutPath
10
262
20
99.5625
11
265
21
99.5625
0
LINE
8
right_outsideCutPath
10
265
20
99.5625
11
265
21
109.6875
0
LINE
8
right_outsideCutPath
10
265
20
109.6875
11
262
21
109.6875
0
LINE
8
right_outsideCutPath
10
262
20
109.6875
11
262
21
119.8125
0
LINE
8
right_outsideCutPath
10
262
20
119.8125
11
265
21
119.8125
0
LINE
8
right_outsideCutPath
10
265
20
119.8125
11
265
21
129.9375
0
LINE
8
right_outsideCutPath
10
265
20
129.9375
11
262
21
129.9375
0
LINE
8
right_outsideCutPath
10
262
20
129.9375
11
262
21
140.0625
0
LINE
8
right_outsideCutPath
10
262
20
140.0625
11
265
21
140.0625
0
LINE
8
right_outsideCutPath
10
265
20
140.0625
11
265
21
150.1875
0
LINE
8
right_outsideCutPath
10
265
20
150.1875
11
262
21
150.1875
0
LINE
8
right_outsideCutPath
10
262
20
150.1875
11
262
21
160.3125
0
LINE
8
right_outsideCutPath
10
262
20
160.3125
11
265
21
160.3125
0
LINE
8
right_outsideCutPath
10
265
20
160.3125
11
265
21
170.4375
0
LINE
8
right_outsideCutPath
10
265
20
170.4375
11
262
21
170.4375
0
LINE
8
right_outsideCutPath
10
262
20
170.4375
11
262
21
178
0
LINE
8
right_outsideCutPath
10
262
20
178
11
252.8125
21
178
0
LINE
8
right_outsideCutPath
10
252.8125
20
178
11
252.8125
21
175
0
LINE
8
right_outsideCutPath
10
252.8125
20
175
11
242.6875
21
175
0
LINE
8
right_outsideCutPath
10
242.6875
20
175
11
242.6875
21
178
0
LINE
8
right_outsideCutPath
10
242.6875
20
178
11
232.5625
21
178
0
LINE
8
right_outsideCutPath
10
232.5625
20
178
11
232.5625
21
175
0
LINE
8
right_outsideCutPath
10
232.5625
20
175
11
222.4375
21
175
0
LINE
8
right_outsideCutPath
10
222.4375
20
175
11
222.4375
21
178
0
LINE
8
right_outsideCutPath
10
222.4375
20
178
11
212.3125
21
178
0
LINE
8
right_outsideCutPath
10
212.3125
20
178
11
212.3125
21
175
0
LINE
8
right_outsideCutPath
10
212.3125
20
175
11
202.1875
21
175
0
LINE
8
right_outsideCutPath
10
202.1875
20
175
11
202.1875
21
178
0
LINE
8
right_outsideCutPath
10
202.1875
20
178
11
192.0625
21
178
0
LINE
8
right_outsideCutPath
10
192.0625
20
178
11
192.0625
21
175
0
LINE
8
right_outsideCutPath
10
192.0625
20
175
11
181.9375
21
175
0
LINE
8
right_outsideCutPath
10
181.9375
20
175
11
181.9375
21
178
0
LINE
8
right_outsideCutPath
10
181.9375
20
178
11
171.8125
21
178
0
LINE
8
right_outsideCutPath
10
171.8125
20
178
11
171.8125
21
175
0
LINE
8
right_outsideCutPath
10
171.8125
20
175
11
161.6875
21
175
0
LINE
8
right_outsideCutPath
10
161.6875
20
175
11
161.6875
21
178
0
LINE
8
right_outsideCutPath
10
161.6875
20
178
11
151.5625
21
178
0
LINE
8
right_outsideCutPath
10
151.5625
20
178
11
151.5625
21
175
0
LINE
8
right_outsideCutPath
10
151.5625
20
175
11
141.4375
21
175
0
LINE
8
right_outsideCutPath
10
141.4375
20
175
11
141.4375
21
178
0
LINE
8
right_outsideCutPath
10
141.4375
20
178
11
131.3125
21
178
0
LINE
8
right_outsideCutPath
10
131.3125
20
178
11
131.3125
21
175
0
LINE
8
right_outsideCutPath
10
131.3125
20
175
11
121.1875
21
175
0
LINE
8
right_outsideCutPath
10
121.1875
20
175
11
121.1875
21
178
0
LINE
8
right_outsideCutPath
10
121.1875
20
178
11
112
21
178
0
LINE
8
bottom_outsideCutPath
10
271
20
315
11
271
21
305.8125
0
LINE
8
bottom_outsideCutPath
10
271
20
305.8125
11
268
21
305.8125
0
LINE
8
bottom_outsideCutPath
10
268
20
305.8125
11
268
21
295.6875
0
LINE
8
bottom_outsideCutPath
10
268
20
295.6875
11
271
21
295.6875
0
LINE
8
bottom_outsideCutPath
10
271
20
295.6875
11
271
21
285.5625
0
LINE
8
bottom_outsideCutPath
10
271
20
285.5625
11
268
21
285.5625
0
LINE
8
bottom_outsideCutPath
10
268
20
285.5625
11
268
21
275.4375
0
LINE
8
bottom_outsideCutPath
10
268
20
275.4375
11
271
21
275.4375
0
LINE
8
bottom_outsideCutPath
10
271
20
275.4375
11
271
21
265.3125
0
LINE
8
bottom_outsideCutPath
10
271
20
265.3125
11
268
21
265.3125
0
LINE
8
bottom_outsideCutPath
10
268
20
265.3125
11
268
21
255.1875
0
LINE
8
bottom_outsideCutPath
10
268
20
255.1875
11
271
21
255.1875
0
LINE
8
bottom_outsideCutPath
10
271
20
255.1875
11
271
21
245.0625
0
LINE
8
bottom_outsideCutPath
10
271
20
245.0625
11
268
21
245.0625
0
LINE
8
bottom_outsideCutPath
10
268
20
245.0625
11
268
21
234.9375
0
LINE
8
bottom_outsideCutPath
10
268
20
234.9375
11
271
21
234.9375
0
LINE
8
bottom_outsideCutPath
10
271
20
234.9375
11
271
21
224.8125
0
LINE
8
bottom_outsideCutPath
10
271
20
224.8125
11
268
21
224.8125
0
LINE
8
bottom_outsideCutPath
10
268
20
224.8125
11
268
21
214.6875
0
LINE
8
bottom_outsideCutPath
10
268
20
214.6875
11
271
21
214.6875
0
LINE
8
bottom_outsideCutPath
10
271
20
214.6875
11
271
21
204.5625
0
LINE
8
bottom_outsideCutPath
10
271
20
204.5625
11
268
21
204.5625
0
LINE
8
bottom_outsideCutPath
10
268
20
204.5625
11
268
21
194.4375
0
LINE
8
bottom_outsideCutPath
10
268
20
194.4375
11
271
21
194.4375
0
LINE
8
bottom_outsideCutPath
10
271
20
194.4375
11
271
21
184.3125
0
LINE
8
bottom_outsideCutPath
10
271
20
184.3125
11
268
21
184.3125
0
LINE
8
bottom_outsideCutPath
10
268
20
184.3125
11
268
21
174.1875
0
LINE
8
bottom_outsideCutPath
10
268
20
174.1875
11
271
21
174.1875
0
LINE
8
bottom_outsideCutPath
10
271
20
174.1875
11
271
21
165
0
LINE
8
bottom_outsideCutPath
10
271
20
165
11
275.4375
21
165
0
LINE
8
bottom_outsideCutPath
10
275.4375
20
165
11
275.4375
21
162
0
LINE
8
bottom_outsideCutPath
10
275.4375
20
162
11
285.5625
21
162
0
LINE
8
bottom_outsideCutPath
10
285.5625
20
162
11
285.5625
21
165
0
LINE
8
bottom_outsideCutPath
10
285.5625
20
165
11
295.6875
21
165
0
LINE
8
bottom_outsideCutPath
10
295.6875
20
165
11
295.6875
21
162
0
LINE
8
bottom_outsideCutPath
10
295.6875
20
162
11
305.8125
21
162
0
LINE
8
bottom_outsideCutPath
10
305.8125
20
162
11
305.8125
21
165
0
LINE
8
bottom_outsideCutPath
10
305.8125
20
165
11
315.9375
21
165
0
LINE
8
bottom_outsideCutPath
10
315.9375
20
165
11
315.9375
21
162
0
LINE
8
bottom_outsideCutPath
10
315.9375
20
162
11
326.0625
21
162
0
LINE
8
bottom_outsideCutPath
10
326.0625
20
162
11
326.0625
21
165
0
LINE
8
bottom_outsideCutPath
10
326.0625
20
165
11
336.1875
21
165
0
LINE
8
bottom_outsideCutPath
10
336.1875
20
165
11
336.1875
21
162
0
LINE
8
bottom_outsideCutPath
10
336.1875
20
162
11
346.3125
21
162
0
LINE
8
bottom_outsideCutPath
10
346.3125
20
162
11
346.3125
21
165
0
LINE
8
bottom_outsideCutPath
10
346.3125
20
165
11
356.4375
21
165
0
LINE
8
bottom_outsideCutPath
10
356.4375
20
165
11
356.4375
21
162
0
LINE
8
bottom_outsideCutPath
10
356.4375
20
162
11
366.5625
21
162
0
LINE
8
bottom_outsideCutPath
10
366.5625
20
162
11
366.5625
21
165
0
LINE
8
bottom_outsideCutPath
10
366.5625
20
165
11
371
21
165
0
LINE
8
bottom_outsideCutPath
10
371
20
165
11
371
21
174.1875
0
LINE
8
bottom_outsideCutPath
10
371
20
174.1875
11
374
21
174.1875
0
LINE
8
bottom_outsideCutPath
10
374
20
174.1875
11
374
21
184.3125
0
LINE
8
bottom_outsideCutPath
10
374
20
184.3125
11
371
21
184.3125
0
LINE
8
bottom_outsideCutPath
10
371
20
184.3125
11
371
21
194.4375
0
LINE
8
bottom_outsideCutPath
10
371
20
194.4375
11
374
21
194.4375
0
LINE
8
bottom_outsideCutPath
10
374
20
194.4375
11
374
21
204.5625
0
LINE
8
bottom_outsideCutPath
10
374
20
204.5625
11
371
21
204.5625
0
LINE
8
bottom_outsideCutPath
10
371
20
204.5625
11
371
21
214.6875
0
LINE
8
bottom_outsideCutPath
10
371
20
214.6875
11
374
21
214.6875
0
LINE
8
bottom_outsideCutPath
10
374
20
214.6875
11
374
21
224.8125
0
LINE
8
bottom_outsideCutPath
10
374
20
224.8125
11
371
21
224.8125
0
LINE
8
bottom_outsideCutPath
10
371
20
224.8125
11
371
21
234.9375
0
LINE
8
bottom_outsideCutPath
10
371
20
234.9375
11
374
21
234.9375
0
LINE
8
bottom_outsideCutPath
10
374
20
234.9375
11
374
21
245.0625
0
LINE
8
bottom_outsideCutPath
10
374
20
245.0625
11
371
21
245.0625
0
LINE
8
bottom_outsideCutPath
10
371
20
245.0625
11
371
21
255.1875
0
LINE
8
bottom_outsideCutPath
10
371
20
255.1875
11
374
21
255.1875
0
LINE
8
bottom_outsideCutPath
10
374
20
255.1875
11
374
21
265.3125
0
LINE
8
bottom_outsideCutPath
10
374
20
265.3125
11
371
21
265.3125
0
LINE
8
bottom_outsideCutPath
10
371
20
265.3125
11
371
21
275.4375
0
LINE
8
bottom_outsideCutPath
10
371
20
275.4375
11
374
21
275.4375
0
LINE
8
bottom_outsideCutPath
10
374
20
275.4375
11
374
21
285.5625
0
LINE
8
bottom_outsideCutPath
10
374
20
285.5625
11
371
21
285.5625
0
LINE
8
bottom_outsideCutPath
10
371
20
285.5625
11
371
21
295.6875
0
LINE
8
bottom_outsideCutPath
10
371
20
295.6875
11
374
21
295.6875
0
LINE
8
bottom_outsideCutPath
10
374
20
295.6875
11
374
21
305.8125
0
LINE
8
bottom_outsideCutPath
10
374
20
305.8125
11
371
21
305.8125
0
LINE
8
bottom_outsideCutPath
10
371
20
305.8125
11
371
21
315
0
LINE
8
bottom_outsideCutPath
10
371
20
315
11
366.5625
21
315
0
LINE
8
bottom_outsideCutPath
10
366.5625
20
315
11
366.5625
21
318
0
LINE
8
bottom_outsideCutPath
10
366.5625
20
318
11
356.4375
21
318
0
LINE
8
bottom_outsideCutPath
10
356.4375
20
318
11
356.4375
21
315
0
LINE
8
bottom_outsideCutPath
10
356.4375
20
315
11
346.3125
21
315
0
LINE
8
bottom_outsideCutPath
10
346.3125
20
315
11
346.3125
21
318
0
LINE
8
bottom_outsideCutPath
10
346.3125
20
318
11
336.1875
21
318
0
LINE
8
bottom_outsideCutPath
10
336.1875
20
318
11
336.1875
21
315
0
LINE
8
bottom_outsideCutPath
10
336.1875
20
315
11
326.0625
21
315
0
LINE
8
bottom_outsideCutPath
10
326.0625
20
315
11
326.0625
21
318
0
LINE
8
bottom_outsideCutPath
10
326.0625
20
318
11
315.9375
21
318
0
LINE
8
bottom_outsideCutPath
10
315.9375
20
318
11
315.9375
21
315
0
LINE
8
bottom_outsideCutPath
10
315.9375
20
315
11
305.8125
21
315
0
LINE
8
bottom_outsideCutPath
10
305.8125
20
315
11
305.8125
21
318
0
LINE
8
bottom_outsideCutPath
10
305.8125
20
318
11
295.6875
21
318
0
LINE
8
bottom_outsideCutPath
10
295.6875
20
318
11
295.6875
21
315
0
LINE
8
bottom_outsideCutPath
10
295.6875
20
315
11
285.5625
21
315
0
LINE
8
bottom_outsideCutPath
10
285.5625
20
315
11
285.5625
21
318
0
LINE
8
bottom_outsideCutPath
10
285.5625
20
318
11
275.4375
21
318
0
LINE
8
bottom_outsideCutPath
10
275.4375
20
318
11
275.4375
21
315
0
LINE
8
bottom_outsideCutPath
10
275.4375
20
315
11
271
21
315
0
ENDSEC
0
EOF