0
SECTION
2
HEADER
9
$INSUNITS
70
4
0
ENDSEC
0
SECTION
2
TABLES
0
TABLE
2
LTYPE
0
LTYPE
72
65
70
64
2
CONTINUOUS
3
______
73
0
40
0
0
ENDTAB
0
TABLE
2
LAYER
0
ENDTAB
0
ENDSEC
0
SECTION
2
ENTITIES
0
LINE
8
front_outsideCutPath
10
0
20
95
11
0
21
79
0
LINE
8
front_outsideCutPath
10
0
20
79
11
6
21
79
0
LINE
8
front_outsideCutPath
10
6
20
79
11
6
21
67
0
LINE
8
front_outsideCutPath
10
6
20
67
11
0
21
67
0
LINE
8
front_outsideCutPath
10
0
20
67
11
0
21
55
0
LINE
8
front_outsideCutPath
10
0
20
55
11
6
21
55
0
LINE
8
front_outsideCutPath
10
6
20
55
11
6
21
43
0
LINE
8
front_outsideCutPath
10
6
20
43
11
0
21
43
0
LINE
8
front_outsideCutPath
10
0
20
43
11
0
21
31
0
LINE
8
front_outsideCutPath
10
0
20
31
11
6
21
31
0
LINE
8
front_outsideCutPath
10
6
20
31
11
6
21
19
0
LINE
8
front_outsideCutPath
10
6
20
19
11
0
21
19
0
LINE
8
front_outsideCutPath
10
0
20
19
11
0
21
7
0
LINE
8
front_outsideCutPath
10
0
20
7
11
0
21
3
0
LINE
8
front_outsideCutPath
10
0
20
3
11
14
21
3
0
LINE
8
front_outsideCutPath
10
14
20
3
11
14
21
9
0
LINE
8
front_outsideCutPath
10
14
20
9
11
26
21
9
0
LINE
8
front_outsideCutPath
10
26
20
9
11
26
21
3
0
LINE
8
front_outsideCutPath
10
26
20
3
11
38
21
3
0
LINE
8
front_outsideCutPath
10
38
20
3
11
38
21
9
0
LINE
8
front_outsideCutPath
10
38
20
9
11
50
21
9
0
LINE
8
front_outsideCutPath
10
50
20
9
11
50
21
3
0
LINE
8
front_outsideCutPath
10
50
20
3
11
62
21
3
0
LINE
8
front_outsideCutPath
10
62
20
3
11
62
21
9
0
LINE
8
front_outsideCutPath
10
62
20
9
11
74
21
9
0
LINE
8
front_outsideCutPath
10
74
20
9
11
74
21
3
0
LINE
8
front_outsideCutPath
10
74
20
3
11
86
21
3
0
LINE
8
front_outsideCutPath
10
86
20
3
11
86
21
9
0
LINE
8
front_outsideCutPath
10
86
20
9
11
98
21
9
0
LINE
8
front_outsideCutPath
10
98
20
9
11
98
21
3
0
LINE
8
front_outsideCutPath
10
98
20
3
11
112
21
3
0
LINE
8
front_outsideCutPath
10
112
20
3
11
112
21
19
0
LINE
8
front_outsideCutPath
10
112
20
19
11
106
21
19
0
LINE
8
front_outsideCutPath
10
106
20
19
11
106
21
31
0
LINE
8
front_outsideCutPath
10
106
20
31
11
112
21
31
0
LINE
8
front_outsideCutPath
10
112
20
31
11
112
21
43
0
LINE
8
front_outsideCutPath
10
112
20
43
11
106
21
43
0
LINE
8
front_outsideCutPath
10
106
20
43
11
106
21
55
0
LINE
8
front_outsideCutPath
10
106
20
55
11
112
21
55
0
LINE
8
front_outsideCutPath
10
112
20
55
11
112
21
67
0
LINE
8
front_outsideCutPath
10
112
20
67
11
106
21
67
0
LINE
8
front_outsideCutPath
10
106
20
67
11
106
21
79
0
LINE
8
front_outsideCutPath
10
106
20
79
11
112
21
79
0
LINE
8
front_outsideCutPath
10
112
20
79
11
112
21
91
0
LINE
8
front_outsideCutPath
10
112
20
91
11
112
21
95
0
LINE
8
front_outsideCutPath
10
112
20
95
11
98
21
95
0
LINE
8
front_outsideCutPath
10
98
20
95
11
98
21
89
0
LINE
8
front_outsideCutPath
10
98
20
89
11
86
21
89
0
LINE
8
front_outsideCutPath
10
86
20
89
11
86
21
95
0
LINE
8
front_outsideCutPath
10
86
20
95
11
74
21
95
0
LINE
8
front_outsideCutPath
10
74
20
95
11
74
21
89
0
LINE
8
front_outsideCutPath
10
74
20
89
11
62
21
89
0
LINE
8
front_outsideCutPath
10
62
20
89
11
62
21
95
0
LINE
8
front_outsideCutPath
10
62
20
95
11
50
21
95
0
LINE
8
front_outsideCutPath
10
50
20
95
11
50
21
89
0
LINE
8
front_outsideCutPath
10
50
20
89
11
38
21
89
0
LINE
8
front_outsideCutPath
10
38
20
89
11
38
21
95
0
LINE
8
front_outsideCutPath
10
38
20
95
11
26
21
95
0
LINE
8
front_outsideCutPath
10
26
20
95
11
26
21
89
0
LINE
8
front_outsideCutPath
10
26
20
89
11
14
21
89
0
LINE
8
front_outsideCutPath
10
14
20
89
11
14
21
95
0
LINE
8
front_outsideCutPath
10
14
20
95
11
0
21
95
0
LINE
8
left_outsideCutPath
10
121
20
95
11
121
21
79
0
LINE
8
left_outsideCutPath
10
121
20
79
11
115
21
79
0
LINE
8
left_outsideCutPath
10
115
20
79
11
115
21
67
0
LINE
8
left_outsideCutPath
10
115
20
67
11
121
21
67
0
LINE
8
left_outsideCutPath
10
121
20
67
11
121
21
55
0
LINE
8
left_outsideCutPath
10
121
20
55
11
115
21
55
0
LINE
8
left_outsideCutPath
10
115
20
55
11
115
21
43
0
LINE
8
left_outsideCutPath
10
115
20
43
11
121
21
43
0
LINE
8
left_outsideCutPath
10
121
20
43
11
121
21
31
0
LINE
8
left_outsideCutPath
10
121
20
31
11
115
21
31
0
LINE
8
left_outsideCutPath
10
115
20
31
11
115
21
19
0
LINE
8
left_outsideCutPath
10
115
20
19
11
121
21
19
0
LINE
8
left_outsideCutPath
10
121
20
19
11
121
21
7
0
LINE
8
left_outsideCutPath
10
121
20
7
11
121
21
3
0
LINE
8
left_outsideCutPath
10
121
20
3
11
130
21
3
0
LINE
8
left_outsideCutPath
10
130
20
3
11
130
21
9
0
LINE
8
left_outsideCutPath
10
130
20
9
11
142
21
9
0
LINE
8
left_outsideCutPath
10
142
20
9
11
142
21
3
0
LINE
8
left_outsideCutPath
10
142
20
3
11
154
21
3
0
LINE
8
left_outsideCutPath
10
154
20
3
11
154
21
9
0
LINE
8
left_outsideCutPath
10
154
20
9
11
166
21
9
0
LINE
8
left_outsideCutPath
10
166
20
9
11
166
21
3
0
LINE
8
left_outsideCutPath
10
166
20
3
11
178
21
3
0
LINE
8
left_outsideCutPath
10
178
20
3
11
178
21
9
0
LINE
8
left_outsideCutPath
10
178
20
9
11
190
21
9
0
LINE
8
left_outsideCutPath
10
190
20
9
11
190
21
3
0
LINE
8
left_outsideCutPath
10
190
20
3
11
202
21
3
0
LINE
8
left_outsideCutPath
10
202
20
3
11
202
21
9
0
LINE
8
left_outsideCutPath
10
202
20
9
11
214
21
9
0
LINE
8
left_outsideCutPath
10
214
20
9
11
214
21
3
0
LINE
8
left_outsideCutPath
10
214
20
3
11
226
21
3
0
LINE
8
left_outsideCutPath
10
226
20
3
11
226
21
9
0
LINE
8
left_outsideCutPath
10
226
20
9
11
238
21
9
0
LINE
8
left_outsideCutPath
10
238
20
9
11
238
21
3
0
LINE
8
left_outsideCutPath
10
238
20
3
11
250
21
3
0
LINE
8
left_outsideCutPath
10
250
20
3
11
250
21
9
0
LINE
8
left_outsideCutPath
10
250
20
9
11
262
21
9
0
LINE
8
left_outsideCutPath
10
262
20
9
11
262
21
3
0
LINE
8
left_outsideCutPath
10
262
20
3
11
271
21
3
0
LINE
8
left_outsideCutPath
10
271
20
3
11
271
21
19
0
LINE
8
left_outsideCutPath
10
271
20
19
11
277
21
19
0
LINE
8
left_outsideCutPath
10
277
20
19
11
277
21
31
0
LINE
8
left_outsideCutPath
10
277
20
31
11
271
21
31
0
LINE
8
left_outsideCutPath
10
271
20
31
11
271
21
43
0
LINE
8
left_outsideCutPath
10
271
20
43
11
277
21
43
0
LINE
8
left_outsideCutPath
10
277
20
43
11
277
21
55
0
LINE
8
left_outsideCutPath
10
277
20
55
11
271
21
55
0
LINE
8
left_outsideCutPath
10
271
20
55
11
271
21
67
0
LINE
8
left_outsideCutPath
10
271
20
67
11
277
21
67
0
LINE
8
left_outsideCutPath
10
277
20
67
11
277
21
79
0
LINE
8
left_outsideCutPath
10
277
20
79
11
271
21
79
0
LINE
8
left_outsideCutPath
10
271
20
79
11
271
21
91
0
LINE
8
left_outsideCutPath
10
271
20
91
11
271
21
95
0
LINE
8
left_outsideCutPath
10
271
20
95
11
262
21
95
0
LINE
8
left_outsideCutPath
10
262
20
95
11
262
21
89
0
LINE
8
left_outsideCutPath
10
262
20
89
11
250
21
89
0
LINE
8
left_outsideCutPath
10
250
20
89
11
250
21
95
0
LINE
8
left_outsideCutPath
10
250
20
95
11
238
21
95
0
LINE
8
left_outsideCutPath
10
238
20
95
11
238
21
89
0
LINE
8
left_outsideCutPath
10
238
20
89
11
226
21
89
0
LINE
8
left_outsideCutPath
10
226
20
89
11
226
21
95
0
LINE
8
left_outsideCutPath
10
226
20
95
11
214
21
95
0
LINE
8
left_outsideCutPath
10
214
20
95
11
214
21
89
0
LINE
8
left_outsideCutPath
10
214
20
89
11
202
21
89
0
LINE
8
left_outsideCutPath
10
202
20
89
11
202
21
95
0
LINE
8
left_outsideCutPath
10
202
20
95
11
190
21
95
0
LINE
8
left_outsideCutPath
10
190
20
95
11
190
21
89
0
LINE
8
left_outsideCutPath
10
190
20
89
11
178
21
89
0
LINE
8
left_outsideCutPath
10
178
20
89
11
178
21
95
0
LINE
8
left_outsideCutPath
10
178
20
95
11
166
21
95
0
LINE
8
left_outsideCutPath
10
166
20
95
11
166
21
89
0
LINE
8
left_outsideCutPath
10
166
20
89
11
154
21
89
0
LINE
8
left_outsideCutPath
10
154
20
89
11
154
21
95
0
LINE
8
left_outsideCutPath
10
154
20
95
11
142
21
95
0
LINE
8
left_outsideCutPath
10
142
20
95
11
142
21
89
0
LINE
8
left_outsideCutPath
10
142
20
89
11
130
21
89
0
LINE
8
left_outsideCutPath
10
130
20
89
11
130
21
95
0
LINE
8
left_outsideCutPath
10
130
20
95
11
121
21
95
0
LINE
8
top_outsideCutPath
10
286
20
159
11
286
21
150
0
LINE
8
top_outsideCutPath
10
286
20
150
11
280
21
150
0
LINE
8
top_outsideCutPath
10
280
20
150
11
280
21
138
0
LINE
8
top_outsideCutPath
10
280
20
138
11
286
21
138
0
LINE
8
top_outsideCutPath
10
286
20
138
11
286
21
126
0
LINE
8
top_outsideCutPath
10
286
20
126
11
280
21
126
0
LINE
8
top_outsideCutPath
10
280
20
126
11
280
21
114
0
LINE
8
top_outsideCutPath
10
280
20
114
11
286
21
114
0
LINE
8
top_outsideCutPath
10
286
20
114
11
286
21
102
0
LINE
8
top_outsideCutPath
10
286
20
102
11
280
21
102
0
LINE
8
top_outsideCutPath
10
280
20
102
11
280
21
90
0
LINE
8
top_outsideCutPath
10
280
20
90
11
286
21
90
0
LINE
8
top_outsideCutPath
10
286
20
90
11
286
21
78
0
LINE
8
top_outsideCutPath
10
286
20
78
11
280
21
78
0
LINE
8
top_outsideCutPath
10
280
20
78
11
280
21
66
0
LINE
8
top_outsideCutPath
10
280
20
66
11
286
21
66
0
LINE
8
top_outsideCutPath
10
286
20
66
11
286
21
54
0
LINE
8
top_outsideCutPath
10
286
20
54
11
280
21
54
0
LINE
8
top_outsideCutPath
10
280
20
54
11
280
21
42
0
LINE
8
top_outsideCutPath
10
280
20
42
11
286
21
42
0
LINE
8
top_outsideCutPath
10
286
20
42
11
286
21
30
0
LINE
8
top_outsideCutPath
10
286
20
30
11
280
21
30
0
LINE
8
top_outsideCutPath
10
280
20
30
11
280
21
18
0
LINE
8
top_outsideCutPath
10
280
20
18
11
286
21
18
0
LINE
8
top_outsideCutPath
10
286
20
18
11
286
21
9
0
LINE
8
top_outsideCutPath
10
286
20
9
11
294
21
9
0
LINE
8
top_outsideCutPath
10
294
20
9
11
294
21
3
0
LINE
8
top_outsideCutPath
10
294
20
3
11
306
21
3
0
LINE
8
top_outsideCutPath
10
306
20
3
11
306
21
9
0
LINE
8
top_outsideCutPath
10
306
20
9
11
318
21
9
0
LINE
8
top_outsideCutPath
10
318
20
9
11
318
21
3
0
LINE
8
top_outsideCutPath
10
318
20
3
11
330
21
3
0
LINE
8
top_outsideCutPath
10
330
20
3
11
330
21
9
0
LINE
8
top_outsideCutPath
10
330
20
9
11
342
21
9
0
LINE
8
top_outsideCutPath
10
342
20
9
11
342
21
3
0
LINE
8
top_outsideCutPath
10
342
20
3
11
354
21
3
0
LINE
8
top_outsideCutPath
10
354
20
3
11
354
21
9
0
LINE
8
top_outsideCutPath
10
354
20
9
11
366
21
9
0
LINE
8
top_outsideCutPath
10
366
20
9
11
366
21
3
0
LINE
8
top_outsideCutPath
10
366
20
3
11
378
21
3
0
LINE
8
top_outsideCutPath
10
378
20
3
11
378
21
9
0
LINE
8
top_outsideCutPath
10
378
20
9
11
386
21
9
0
LINE
8
top_outsideCutPath
10
386
20
9
11
386
21
18
0
LINE
8
top_outsideCutPath
10
386
20
18
11
392
21
18
0
LINE
8
top_outsideCutPath
10
392
20
18
11
392
21
30
0
LINE
8
top_outsideCutPath
10
392
20
30
11
386
21
30
0
LINE
8
top_outsideCutPath
10
386
20
30
11
386
21
42
0
LINE
8
top_outsideCutPath
10
386
20
42
11
392
21
42
0
LINE
8
top_outsideCutPath
10
392
20
42
11
392
21
54
0
LINE
8
top_outsideCutPath
10
392
20
54
11
386
21
54
0
LINE
8
top_outsideCutPath
10
386
20
54
11
386
21
66
0
LINE
8
top_outsideCutPath
10
386
20
66
11
392
21
66
0
LINE
8
top_outsideCutPath
10
392
20
66
11
392
21
78
0
LINE
8
top_outsideCutPath
10
392
20
78
11
386
21
78
0
LINE
8
top_outsideCutPath
10
386
20
78
11
386
21
90
0
LINE
8
top_outsideCutPath
10
386
20
90
11
392
21
90
0
LINE
8
top_outsideCutPath
10
392
20
90
11
392
21
102
0
LINE
8
top_outsideCutPath
10
392
20
102
11
386
21
102
0
LINE
8
top_outsideCutPath
10
386
20
102
11
386
21
114
0
LINE
8
top_outsideCutPath
10
386
20
114
11
392
21
114
0
LINE
8
top_outsideCutPath
10
392
20
114
11
392
21
126
0
LINE
8
top_outsideCutPath
10
392
20
126
11
386
21
126
0
LINE
8
top_outsideCutPath
10
386
20
126
11
386
21
138
0
LINE
8
top_outsideCutPath
10
386
20
138
11
392
21
138
0
LINE
8
top_outsideCutPath
10
392
20
138
11
392
21
150
0
LINE
8
top_outsideCutPath
10
392
20
150
11
386
21
150
0
LINE
8
top_outsideCutPath
10
386
20
150
11
386
21
159
0
LINE
8
top_outsideCutPath
10
386
20
159
11
378
21
159
0
LINE
8
top_outsideCutPath
10
378
20
159
11
378
21
165
0
LINE
8
top_outsideCutPath
10
378
20
165
11
366
21
165
0
LINE
8
top_outsideCutPath
10
366
20
165
11
366
21
159
0
LINE
8
top_outsideCutPath
10
366
20
159
11
354
21
159
0
LINE
8
top_outsideCutPath
10
354
20
159
11
354
21
165
0
LINE
8
top_outsideCutPath
10
354
20
165
11
342
21
165
0
LINE
8
top_outsideCutPath
10
342
20
165
11
342
21
159
0
LINE
8
top_outsideCutPath
10
342
20
159
11
330
21
159
0
LINE
8
top_outsideCutPath
10
330
20
159
11
330
21
165
0
LINE
8
top_outsideCutPath
10
330
20
165
11
318
21
165
0
LINE
8
top_outsideCutPath
10
318
20
165
11
318
21
159
0
LINE
8
top_outsideCutPath
10
318
20
159
11
306
21
159
0
LINE
8
top_outsideCutPath
10
306
20
159
11
306
21
165
0
LINE
8
top_outsideCutPath
10
306
20
165
11
294
21
165
0
LINE
8
top_outsideCutPath
10
294
20
165
11
294
21
159
0
LINE
8
top_outsideCutPath
10
294
20
159
11
286
21
159
0
LINE
8
back_outsideCutPath
10
0
20
190
11
0
21
174
0
LINE
8
back_outsideCutPath
10
0
20
174
11
6
21
174
0
LINE
8
back_outsideCutPath
10
6
20
174
11
6
21
162
0
LINE
8
back_outsideCutPath
10
6
20
162
11
0
21
162
0
LINE
8
back_outsideCutPath
10
0
20
162
11
0
21
150
0
LINE
8
back_outsideCutPath
10
0
20
150
11
6
21
150
0
LINE
8
back_outsideCutPath
10
6
20
150
11
6
21
138
0
LINE
8
back_outsideCutPath
10
6
20
138
11
0
21
138
0
LINE
8
back_outsideCutPath
10
0
20
138
11
0
21
126
0
LINE
8
back_outsideCutPath
10
0
20
126
11
6
21
126
0
LINE
8
back_outsideCutPath
10
6
20
126
11
6
21
114
0
LINE
8
back_outsideCutPath
10
6
20
114
11
0
21
114
0
LINE
8
back_outsideCutPath
10
0
20
114
11
0
21
102
0
LINE
8
back_outsideCutPath
10
0
20
102
11
0
21
98
0
LINE
8
back_outsideCutPath
10
0
20
98
11
14
21
98
0
LINE
8
back_outsideCutPath
10
14
20
98
11
14
21
104
0
LINE
8
back_outsideCutPath
10
14
20
104
11
26
21
104
0
LINE
8
back_outsideCutPath
10
26
20
104
11
26
21
98
0
LINE
8
back_outsideCutPath
10
26
20
98
11
38
21
98
0
LINE
8
back_outsideCutPath
10
38
20
98
11
38
21
104
0
LINE
8
back_outsideCutPath
10
38
20
104
11
50
21
104
0
LINE
8
back_outsideCutPath
10
50
20
104
11
50
21
98
0
LINE
8
back_outsideCutPath
10
50
20
98
11
62
21
98
0
LINE
8
back_outsideCutPath
10
62
20
98
11
62
21
104
0
LINE
8
back_outsideCutPath
10
62
20
104
11
74
21
104
0
LINE
8
back_outsideCutPath
10
74
20
104
11
74
21
98
0
LINE
8
back_outsideCutPath
10
74
20
98
11
86
21
98
0
LINE
8
back_outsideCutPath
10
86
20
98
11
86
21
104
0
LINE
8
back_outsideCutPath
10
86
20
104
11
98
21
104
0
LINE
8
back_outsideCutPath
10
98
20
104
11
98
21
98
0
LINE
8
back_outsideCutPath
10
98
20
98
11
112
21
98
0
LINE
8
back_outsideCutPath
10
112
20
98
11
112
21
114
0
LINE
8
back_outsideCutPath
10
112
20
114
11
106
21
114
0
LINE
8
back_outsideCutPath
10
106
20
114
11
106
21
126
0
LINE
8
back_outsideCutPath
10
106
20
126
11
112
21
126
0
LINE
8
back_outsideCutPath
10
112
20
126
11
112
21
138
0
LINE
8
back_outsideCutPath
10
112
20
138
11
106
21
138
0
LINE
8
back_outsideCutPath
10
106
20
138
11
106
21
150
0
LINE
8
back_outsideCutPath
10
106
20
150
11
112
21
150
0
LINE
8
back_outsideCutPath
10
112
20
150
11
112
21
162
0
LINE
8
back_outsideCutPath
10
112
20
162
11
106
21
162
0
LINE
8
back_outsideCutPath
10
106
20
162
11
106
21
174
0
LINE
8
back_outsideCutPath
10
106
20
174
11
112
21
174
0
LINE
8
back_outsideCutPath
10
112
20
174
11
112
21
186
0
LINE
8
back_outsideCutPath
10
112
20
186
11
112
21
190
0
LINE
8
back_outsideCutPath
10
112
20
190
11
98
21
190
0
LINE
8
back_outsideCutPath
10
98
20
190
11
98
21
184
0
LINE
8
back_outsideCutPath
10
98
20
184
11
86
21
184
0
LINE
8
back_outsideCutPath
10
86
20
184
11
86
21
190
0
LINE
8
back_outsideCutPath
10
86
20
190
11
74
21
190
0
LINE
8
back_outsideCutPath
10
74
20
190
11
74
21
184
0
LINE
8
back_outsideCutPath
10
74
20
184
11
62
21
184
0
LINE
8
back_outsideCutPath
10
62
20
184
11
62
21
190
0
LINE
8
back_outsideCutPath
10
62
20
190
11
50
21
190
0
LINE
8
back_outsideCutPath
10
50
20
190
11
50
21
184
0
LINE
8
back_outsideCutPath
10
50
20
184
11
38
21
184
0
LINE
8
back_outsideCutPath
10
38
20
184
11
38
21
190
0
LINE
8
back_outsideCutPath
10
38
20
190
11
26
21
190
0
LINE
8
back_outsideCutPath
10
26
20
190
11
26
21
184
0
LINE
8
back_outsideCutPath
10
26
20
184
11
14
21
184
0
LINE
8
back_outsideCutPath
10
14
20
184
11
14
21
190
0
LINE
8
back_outsideCutPath
10
14
20
190
11
0
21
190
0
LINE
8
right_outsideCutPath
10
121
20
190
11
121
21
174
0
LINE
8
right_outsideCutPath
10
121
20
174
11
115
21
174
0
LINE
8
right_outsideCutPath
10
115
20
174
11
115
21
162
0
LINE
8
right_outsideCutPath
10
115
20
162
11
121
21
162
0
LINE
8
right_outsideCutPath
10
121
20
162
11
121
21
150
0
LINE
8
right_outsideCutPath
10
121
20
150
11
115
21
150
0
LINE
8
right_outsideCutPath
10
115
20
150
11
115
21
138
0
LINE
8
right_outsideCutPath
10
115
20
138
11
121
21
138
0
LINE
8
right_outsideCutPath
10
121
20
138
11
121
21
126
0
LINE
8
right_outsideCutPath
10
121
20
126
11
115
21
126
0
LINE
8
right_outsideCutPath
10
115
20
126
11
115
21
114
0
LINE
8
right_outsideCutPath
10
115
20
114
11
121
21
114
0
LINE
8
right_outsideCutPath
10
121
20
114
11
121
21
102
0
LINE
8
right_outsideCutPath
10
121
20
102
11
121
21
98
0
LINE
8
right_outsideCutPath
10
121
20
98
11
130
21
98
0
LINE
8
right_outsideCutPath
10
130
20
98
11
130
21
104
0
LINE
8
right_outsideCutPath
10
130
20
104
11
142
21
104
0
LINE
8
right_outsideCutPath
10
142
20
104
11
142
21
98
0
LINE
8
right_outsideCutPath
10
142
20
98
11
154
21
98
0
LINE
8
right_outsideCutPath
10
154
20
98
11
154
21
104
0
LINE
8
right_outsideCutPath
10
154
20
104
11
166
21
104
0
LINE
8
right_outsideCutPath
10
166
20
104
11
166
21
98
0
LINE
8
right_outsideCutPath
10
166
20
98
11
178
21
98
0
LINE
8
right_outsideCutPath
10
178
20
98
11
178
21
104
0
LINE
8
right_outsideCutPath
10
178
20
104
11
190
21
104
0
LINE
8
right_outsideCutPath
10
190
20
104
11
190
21
98
0
LINE
8
right_outsideCutPath
10
190
20
98
11
202
21
98
0
LINE
8
right_outsideCutPath
10
202
20
98
11
202
21
104
0
LINE
8
right_outsideCutPath
10
202
20
104
11
214
21
104
0
LINE
8
right_outsideCutPath
10
214
20
104
11
214
21
98
0
LINE
8
right_outsideCutPath
10
214
20
98
11
226
21
98
0
LINE
8
right_outsideCutPath
10
226
20
98
11
226
21
104
0
LINE
8
right_outsideCutPath
10
226
20
104
11
238
21
104
0
LINE
8
right_outsideCutPath
10
238
20
104
11
238
21
98
0
LINE
8
right_outsideCutPath
10
238
20
98
11
250
21
98
0
LINE
8
right_outsideCutPath
10
250
20
98
11
250
21
104
0
LINE
8
right_outsideCutPath
10
250
20
104
11
262
21
104
0
LINE
8
right_outsideCutPath
10
262
20
104
11
262
21
98
0
LINE
8
right_outsideCutPath
10
262
20
98
11
271
21
98
0
LINE
8
right_outsideCutPath
10
271
20
98
11
271
21
114
0
LINE
8
right_outsideCutPath
10
271
20
114
11
277
21
114
0
LINE
8
right_outsideCutPath
10
277
20
114
11
277
21
126
0
LINE
8
right_outsideCutPath
10
277
20
126
11
271
21
126
0
LINE
8
right_outsideCutPath
10
271
20
126
11
271
21
138
0
LINE
8
right_outsideCutPath
10
271
20
138
11
277
21
138
0
LINE
8
right_outsideCutPath
10
277
20
138
11
277
21
150
0
LINE
8
right_outsideCutPath
10
277
20
150
11
271
21
150
0
LINE
8
right_outsideCutPath
10
271
20
150
11
271
21
162
0
LINE
8
right_outsideCutPath
10
271
20
162
11
277
21
162
0
LINE
8
right_outsideCutPath
10
277
20
162
11
277
21
174
0
LINE
8
right_outsideCutPath
10
277
20
174
11
271
21
174
0
LINE
8
right_outsideCutPath
10
271
20
174
11
271
21
186
0
LINE
8
right_outsideCutPath
10
271
20
186
11
271
21
190
0
LINE
8
right_outsideCutPath
10
271
20
190
11
262
21
190
0
LINE
8
right_outsideCutPath
10
262
20
190
11
262
21
184
0
LINE
8
right_outsideCutPath
10
262
20
184
11
250
21
184
0
LINE
8
right_outsideCutPath
10
250
20
184
11
250
21
190
0
LINE
8
right_outsideCutPath
10
250
20
190
11
238
21
190
0
LINE
8
right_outsideCutPath
10
238
20
190
11
238
21
184
0
LINE
8
right_outsideCutPath
10
238
20
184
11
226
21
184
0
LINE
8
right_outsideCutPath
10
226
20
184
11
226
21
190
0
LINE
8
right_outsideCutPath
10
226
20
190
11
214
21
190
0
LINE
8
right_outsideCutPath
10
214
20
190
11
214
21
184
0
LINE
8
right_outsideCutPath
10
214
20
184
11
202
21
184
0
LINE
8
right_outsideCutPath
10
202
20
184
11
202
21
190
0
LINE
8
right_outsideCutPath
10
202
20
190
11
190
21
190
0
LINE
8
right_outsideCutPath
10
190
20
190
11
190
21
184
0
LINE
8
right_outsideCutPath
10
190
20
184
11
178
21
184
0
LINE
8
right_outsideCutPath
10
178
20
184
11
178
21
190
0
LINE
8
right_outsideCutPath
10
178
20
190
11
166
21
190
0
LINE
8
right_outsideCutPath
10
166
20
190
11
166
21
184
0
LINE
8
right_outsideCutPath
10
166
20
184
11
154
21
184
0
LINE
8
right_outsideCutPath
10
154
20
184
11
154
21
190
0
LINE
8
right_outsideCutPath
10
154
20
190
11
142
21
190
0
LINE
8
right_outsideCutPath
10
142
20
190
11
142
21
184
0
LINE
8
right_outsideCutPath
10
142
20
184
11
130
21
184
0
LINE
8
right_outsideCutPath
10
130
20
184
11
130
21
190
0
LINE
8
right_outsideCutPath
10
130
20
190
11
121
21
190
0
LINE
8
bottom_outsideCutPath
10
286
20
324
11
286
21
315
0
LINE
8
bottom_outsideCutPath
10
286
20
315
11
280
21
315
0
LINE
8
bottom_outsideCutPath
10
280
20
315
11
280
21
303
0
LINE
8
bottom_outsideCutPath
10
280
20
303
11
286
21
303
0
LINE
8
bottom_outsideCutPath
10
286
20
303
11
286
21
291
0
LINE
8
bottom_outsideCutPath
10
286
20
291
11
280
21
291
0
LINE
8
bottom_outsideCutPath
10
280
20
291
11
280
21
279
0
LINE
8
bottom_outsideCutPath
10
280
20
279
11
286
21
279
0
LINE
8
bottom_outsideCutPath
10
286
20
279
11
286
21
267
0
LINE
8
bottom_outsideCutPath
10
286
20
267
11
280
21
267
0
LINE
8
bottom_outsideCutPath
10
280
20
267
11
280
21
255
0
LINE
8
bottom_outsideCutPath
10
280
20
255
11
286
21
255
0
LINE
8
bottom_outsideCutPath
10
286
20
255
11
286
21
243
0
LINE
8
bottom_outsideCutPath
10
286
20
243
11
280
21
243
0
LINE
8
bottom_outsideCutPath
10
280
20
243
11
280
21
231
0
LINE
8
bottom_outsideCutPath
10
280
20
231
11
286
21
231
0
LINE
8
bottom_outsideCutPath
10
286
20
231
11
286
21
219
0
LINE
8
bottom_outsideCutPath
10
286
20
219
11
280
21
219
0
LINE
8
bottom_outsideCutPath
10
280
20
219
11
280
21
207
0
LINE
8
bottom_outsideCutPath
10
280
20
207
11
286
21
207
0
LINE
8
bottom_outsideCutPath
10
286
20
207
11
286
21
195
0
LINE
8
bottom_outsideCutPath
10
286
20
195
11
280
21
195
0
LINE
8
bottom_outsideCutPath
10
280
20
195
11
280
21
183
0
LINE
8
bottom_outsideCutPath
10
280
20
183
11
286
21
183
0
LINE
8
bottom_outsideCutPath
10
286
20
183
11
286
21
174
0
LINE
8
bottom_outsideCutPath
10
286
20
174
11
294
21
174
0
LINE
8
bottom_outsideCutPath
10
294
20
174
11
294
21
168
0
LINE
8
bottom_outsideCutPath
10
294
20
168
11
306
21
168
0
LINE
8
bottom_outsideCutPath
10
306
20
168
11
306
21
174
0
LINE
8
bottom_outsideCutPath
10
306
20
174
11
318
21
174
0
LINE
8
bottom_outsideCutPath
10
318
20
174
11
318
21
168
0
LINE
8
bottom_outsideCutPath
10
318
20
168
11
330
21
168
0
LINE
8
bottom_outsideCutPath
10
330
20
168
11
330
21
174
0
LINE
8
bottom_outsideCutPath
10
330
20
174
11
342
21
174
0
LINE
8
bottom_outsideCutPath
10
342
20
174
11
342
21
168
0
LINE
8
bottom_outsideCutPath
10
342
20
168
11
354
21
168
0
LINE
8
bottom_outsideCutPath
10
354
20
168
11
354
21
174
0
LINE
8
bottom_outsideCutPath
10
354
20
174
11
366
21
174
0
LINE
8
bottom_outsideCutPath
10
366
20
174
11
366
21
168
0
LINE
8
bottom_outsideCutPath
10
366
20
168
11
378
21
168
0
LINE
8
bottom_outsideCutPath
10
378
20
168
11
378
21
174
0
LINE
8
bottom_outsideCutPath
10
378
20
174
11
386
21
174
0
LINE
8
bottom_outsideCutPath
10
386
20
174
11
386
21
183
0
LINE
8
bottom_outsideCutPath
10
386
20
183
11
392
21
183
0
LINE
8
bottom_outsideCutPath
10
392
20
183
11
392
21
195
0
LINE
8
bottom_outsideCutPath
10
392
20
195
11
386
21
195
0
LINE
8
bottom_outsideCutPath
10
386
20
195
11
386
21
207
0
LINE
8
bottom_outsideCutPath
10
386
20
207
11
392
21
207
0
LINE
8
bottom_outsideCutPath
10
392
20
207
11
392
21
219
0
LINE
8
bottom_outsideCutPath
10
392
20
219
11
386
21
219
0
LINE
8
bottom_outsideCutPath
10
386
20
219
11
386
21
231
0
LINE
8
bottom_outsideCutPath
10
386
20
231
11
392
21
231
0
LINE
8
bottom_outsideCutPath
10
392
20
231
11
392
21
243
0
LINE
8
bottom_outsideCutPath
10
392
20
243
11
386
21
243
0
LINE
8
bottom_outsideCutPath
10
386
20
243
11
386
21
255
0
LINE
8
bottom_outsideCutPath
10
386
20
255
11
392
21
255
0
LINE
8
bottom_outsideCutPath
10
392
20
255
11
392
21
267
0
LINE
8
bottom_outsideCutPath
10
392
20
267
11
386
21
267
0
LINE
8
bottom_outsideCutPath
10
386
20
267
11
386
21
279
0
LINE
8
bottom_outsideCutPath
10
386
20
279
11
392
21
279
0
LINE
8
bottom_outsideCutPath
10
392
20
279
11
392
21
291
0
LINE
8
bottom_outsideCutPath
10
392
20
291
11
386
21
291
0
LINE
8
bottom_outsideCutPath
10
386
20
291
11
386
21
303
0
LINE
8
bottom_outsideCutPath
10
386
20
303
11
392
21
303
0
LINE
8
bottom_outsideCutPath
10
392
20
303
11
392
21
315
0
LINE
8
bottom_outsideCutPath
10
392
20
315
11
386
21
315
0
LINE
8
bottom_outsideCutPath
10
386
20
315
11
386
21
324
0
LINE
8
bottom_outsideCutPath
10
386
20
324
11
378
21
324
0
LINE
8
bottom_outsideCutPath
10
378
20
324
11
378
21
330
0
LINE
8
bottom_outsideCutPath
10
378
20
330
11
366
21
330
0
LINE
8
bottom_outsideCutPath
10
366
20
330
11
366
21
324
0
LINE
8
bottom_outsideCutPath
10
366
20
324
11
354
21
324
0
LINE
8
bottom_outsideCutPath
10
354
20
324
11
354
21
330
0
LINE
8
bottom_outsideCutPath
10
354
20
330
11
342
21
330
0
LINE
8
bottom_outsideCutPath
10
342
20
330
11
342
21
324
0
LINE
8
bottom_outsideCutPath
10
342
20
324
11
330
21
324
0
LINE
8
bottom_outsideCutPath
10
330
20
324
11
330
21
330
0
LINE
8
bottom_outsideCutPath
10
330
20
330
11
318
21
330
0
LINE
8
bottom_outsideCutPath
10
318
20
330
11
318
21
324
0
LINE
8
bottom_outsideCutPath
10
318
20
324
11
306
21
324
0
LINE
8
bottom_outsideCutPath
10
306
20
324
11
306
21
330
0
LINE
8
bottom_outsideCutPath
10
306
20
330
11
294
21
330
0
LINE
8
bottom_outsideCutPath
10
294
20
330
11
294
21
324
0
LINE
8
bottom_outsideCutPath
10
294
20
324
11
286
21
324
0
ENDSEC
0
EOF