<svg width="392mm" height="327mm" viewBox="0 0 392 327" xmlns="http://www.w3.org/2000/svg" version="1.1" preserveAspectRatio="xMidYMid meet"><g id="svgGroup" stroke-linecap="round" fill-rule="evenodd" font-size="9pt" stroke="#000" stroke-width="0.25mm" fill="none" style="stroke:#000;stroke-width:0.25mm;fill:none"><path d="M 0 235 L 0 251 L 6 251 L 6 263 L 0 263 L 0 275 L 6 275 L 6 287 L 0 287 L 0 299 L 6 299 L 6 311 L 0 311 L 0 323 L 0 327 L 14 327 L 14 321 L 26 321 L 26 327 L 38 327 L 38 321 L 50 321 L 50 327 L 62 327 L 62 321 L 74 321 L 74 327 L 86 327 L 86 321 L 98 321 L 98 327 L 112 327 L 112 311 L 106 311 L 106 299 L 112 299 L 112 287 L 106 287 L 106 275 L 112 275 L 112 263 L 106 263 L 106 251 L 112 251 L 112 239 L 112 235 L 98 235 L 98 241 L 86 241 L 86 235 L 74 235 L 74 241 L 62 241 L 62 235 L 50 235 L 50 241 L 38 241 L 38 235 L 26 235 L 26 241 L 14 241 L 14 235 L 0 235 Z" id="front_outsideCutPath" stroke="#000000" stroke-width="1" style="stroke:#000000;stroke-width:1" vector-effect="non-scaling-stroke"/><path d="M 121 235 L 121 251 L 115 251 L 115 263 L 121 263 L 121 275 L 115 275 L 115 287 L 121 287 L 121 299 L 115 299 L 115 311 L 121 311 L 121 323 L 121 327 L 130 327 L 130 321 L 142 321 L 142 327 L 154 327 L 154 321 L 166 321 L 166 327 L 178 327 L 178 321 L 190 321 L 190 327 L 202 327 L 202 321 L 214 321 L 214 327 L 226 327 L 226 321 L 238 321 L 238 327 L 250 327 L 250 321 L 262 321 L 262 327 L 271 327 L 271 311 L 277 311 L 277 299 L 271 299 L 271 287 L 277 287 L 277 275 L 271 275 L 271 263 L 277 263 L 277 251 L 271 251 L 271 239 L 271 235 L 262 235 L 262 241 L 250 241 L 250 235 L 238 235 L 238 241 L 226 241 L 226 235 L 214 235 L 214 241 L 202 241 L 202 235 L 190 235 L 190 241 L 178 241 L 178 235 L 166 235 L 166 241 L 154 241 L 154 235 L 142 235 L 142 241 L 130 241 L 130 235 L 121 235 Z" id="left_outsideCutPath" stroke="#000000" stroke-width="1" style="stroke:#000000;stroke-width:1" vector-effect="non-scaling-stroke"/><path d="M 286 171 L 286 180 L 280 180 L 280 192 L 286 192 L 286 204 L 280 204 L 280 216 L 286 216 L 286 228 L 280 228 L 280 240 L 286 240 L 286 252 L 280 252 L 280 264 L 286 264 L 286 276 L 280 276 L 280 288 L 286 288 L 286 300 L 280 300 L 280 312 L 286 312 L 286 321 L 294 321 L 294 327 L 306 327 L 306 321 L 318 321 L 318 327 L 330 327 L 330 321 L 342 321 L 342 327 L 354 327 L 354 321 L 366 321 L 366 327 L 378 327 L 378 321 L 386 321 L 386 312 L 392 312 L 392 300 L 386 300 L 386 288 L 392 288 L 392 276 L 386 276 L 386 264 L 392 264 L 392 252 L 386 252 L 386 240 L 392 240 L 392 228 L 386 228 L 386 216 L 392 216 L 392 204 L 386 204 L 386 192 L 392 192 L 392 180 L 386 180 L 386 171 L 378 171 L 378 165 L 366 165 L 366 171 L 354 171 L 354 165 L 342 165 L 342 171 L 330 171 L 330 165 L 318 165 L 318 171 L 306 171 L 306 165 L 294 165 L 294 171 L 286 171 Z" id="top_outsideCutPath" stroke="#000000" stroke-width="1" style="stroke:#000000;stroke-width:1" vector-effect="non-scaling-stroke"/><path d="M 0 140 L 0 156 L 6 156 L 6 168 L 0 168 L 0 180 L 6 180 L 6 192 L 0 192 L 0 204 L 6 204 L 6 216 L 0 216 L 0 228 L 0 232 L 14 232 L 14 226 L 26 226 L 26 232 L 38 232 L 38 226 L 50 226 L 50 232 L 62 232 L 62 226 L 74 226 L 74 232 L 86 232 L 86 226 L 98 226 L 98 232 L 112 232 L 112 216 L 106 216 L 106 204 L 112 204 L 112 192 L 106 192 L 106 180 L 112 180 L 112 168 L 106 168 L 106 156 L 112 156 L 112 144 L 112 140 L 98 140 L 98 146 L 86 146 L 86 140 L 74 140 L 74 146 L 62 146 L 62 140 L 50 140 L 50 146 L 38 146 L 38 140 L 26 140 L 26 146 L 14 146 L 14 140 L 0 140 Z" id="back_outsideCutPath" stroke="#000000" stroke-width="1" style="stroke:#000000;stroke-width:1" vector-effect="non-scaling-stroke"/><path d="M 121 140 L 121 156 L 115 156 L 115 168 L 121 168 L 121 180 L 115 180 L 115 192 L 121 192 L 121 204 L 115 204 L 115 216 L 121 216 L 121 228 L 121 232 L 130 232 L 130 226 L 142 226 L 142 232 L 154 232 L 154 226 L 166 226 L 166 232 L 178 232 L 178 226 L 190 226 L 190 232 L 202 232 L 202 226 L 214 226 L 214 232 L 226 232 L 226 226 L 238 226 L 238 232 L 250 232 L 250 226 L 262 226 L 262 232 L 271 232 L 271 216 L 277 216 L 277 204 L 271 204 L 271 192 L 277 192 L 277 180 L 271 180 L 271 168 L 277 168 L 277 156 L 271 156 L 271 144 L 271 140 L 262 140 L 262 146 L 250 146 L 250 140 L 238 140 L 238 146 L 226 146 L 226 140 L 214 140 L 214 146 L 202 146 L 202 140 L 190 140 L 190 146 L 178 146 L 178 140 L 166 140 L 166 146 L 154 146 L 154 140 L 142 140 L 142 146 L 130 146 L 130 140 L 121 140 Z" id="right_outsideCutPath" stroke="#000000" stroke-width="1" style="stroke:#000000;stroke-width:1" vector-effect="non-scaling-stroke"/><path d="M 286 6 L 286 15 L 280 15 L 280 27 L 286 27 L 286 39 L 280 39 L 280 51 L 286 51 L 286 63 L 280 63 L 280 75 L 286 75 L 286 87 L 280 87 L 280 99 L 286 99 L 286 111 L 280 111 L 280 123 L 286 123 L 286 135 L 280 135 L 280 147 L 286 147 L 286 156 L 294 156 L 294 162 L 306 162 L 306 156 L 318 156 L 318 162 L 330 162 L 330 156 L 342 156 L 342 162 L 354 162 L 354 156 L 366 156 L 366 162 L 378 162 L 378 156 L 386 156 L 386 147 L 392 147 L 392 135 L 386 135 L 386 123 L 392 123 L 392 111 L 386 111 L 386 99 L 392 99 L 392 87 L 386 87 L 386 75 L 392 75 L 392 63 L 386 63 L 386 51 L 392 51 L 392 39 L 386 39 L 386 27 L 392 27 L 392 15 L 386 15 L 386 6 L 378 6 L 378 0 L 366 0 L 366 6 L 354 6 L 354 0 L 342 0 L 342 6 L 330 6 L 330 0 L 318 0 L 318 6 L 306 6 L 306 0 L 294 0 L 294 6 L 286 6 Z" id="bottom_outsideCutPath" stroke="#000000" stroke-width="1" style="stroke:#000000;stroke-width:1" vector-effect="non-scaling-stroke"/></g></svg>