0
SECTION
2
HEADER
9
$INSUNITS
70
4
0
ENDSEC
0
SECTION
2
TABLES
0
TABLE
2
LTYPE
0
LTYPE
72
65
70
64
2
CONTINUOUS
3
______
73
0
40
0
0
ENDTAB
0
TABLE
2
LAYER
0
ENDTAB
0
ENDSEC
0
SECTION
2
ENTITIES
0
LINE
8
front_outsideCutPath
10
0
20
159
11
0
21
151.125
0
LINE
8
front_outsideCutPath
10
0
20
151.125
11
3
21
151.125
0
LINE
8
front_outsideCutPath
10
3
20
151.125
11
3
21
142.875
0
LINE
8
front_outsideCutPath
10
3
20
142.875
11
0
21
142.875
0
LINE
8
front_outsideCutPath
10
0
20
142.875
11
0
21
134.625
0
LINE
8
front_outsideCutPath
10
0
20
134.625
11
3
21
134.625
0
LINE
8
front_outsideCutPath
10
3
20
134.625
11
3
21
126.375
0
LINE
8
front_outsideCutPath
10
3
20
126.375
11
0
21
126.375
0
LINE
8
front_outsideCutPath
10
0
20
126.375
11
0
21
118.125
0
LINE
8
front_outsideCutPath
10
0
20
118.125
11
3
21
118.125
0
LINE
8
front_outsideCutPath
10
3
20
118.125
11
3
21
109.875
0
LINE
8
front_outsideCutPath
10
3
20
109.875
11
0
21
109.875
0
LINE
8
front_outsideCutPath
10
0
20
109.875
11
0
21
101.625
0
LINE
8
front_outsideCutPath
10
0
20
101.625
11
3
21
101.625
0
LINE
8
front_outsideCutPath
10
3
20
101.625
11
3
21
93.375
0
LINE
8
front_outsideCutPath
10
3
20
93.375
11
0
21
93.375
0
LINE
8
front_outsideCutPath
10
0
20
93.375
11
0
21
85.125
0
LINE
8
front_outsideCutPath
10
0
20
85.125
11
3
21
85.125
0
LINE
8
front_outsideCutPath
10
3
20
85.125
11
3
21
76.875
0
LINE
8
front_outsideCutPath
10
3
20
76.875
11
0
21
76.875
0
LINE
8
front_outsideCutPath
10
0
20
76.875
11
0
21
68.625
0
LINE
8
front_outsideCutPath
10
0
20
68.625
11
3
21
68.625
0
LINE
8
front_outsideCutPath
10
3
20
68.625
11
3
21
60.375
0
LINE
8
front_outsideCutPath
10
3
20
60.375
11
0
21
60.375
0
LINE
8
front_outsideCutPath
10
0
20
60.375
11
0
21
52.125
0
LINE
8
front_outsideCutPath
10
0
20
52.125
11
3
21
52.125
0
LINE
8
front_outsideCutPath
10
3
20
52.125
11
3
21
43.875
0
LINE
8
front_outsideCutPath
10
3
20
43.875
11
0
21
43.875
0
LINE
8
front_outsideCutPath
10
0
20
43.875
11
0
21
35.625
0
LINE
8
front_outsideCutPath
10
0
20
35.625
11
3
21
35.625
0
LINE
8
front_outsideCutPath
10
3
20
35.625
11
3
21
27.375
0
LINE
8
front_outsideCutPath
10
3
20
27.375
11
0
21
27.375
0
LINE
8
front_outsideCutPath
10
0
20
27.375
11
0
21
19.125
0
LINE
8
front_outsideCutPath
10
0
20
19.125
11
3
21
19.125
0
LINE
8
front_outsideCutPath
10
3
20
19.125
11
3
21
10.875
0
LINE
8
front_outsideCutPath
10
3
20
10.875
11
0
21
10.875
0
LINE
8
front_outsideCutPath
10
0
20
10.875
11
0
21
3
0
LINE
8
front_outsideCutPath
10
0
20
3
11
6.625
21
3
0
LINE
8
front_outsideCutPath
10
6.625
20
3
11
6.625
21
6
0
LINE
8
front_outsideCutPath
10
6.625
20
6
11
14.875
21
6
0
LINE
8
front_outsideCutPath
10
14.875
20
6
11
14.875
21
3
0
LINE
8
front_outsideCutPath
10
14.875
20
3
11
23.125
21
3
0
LINE
8
front_outsideCutPath
10
23.125
20
3
11
23.125
21
6
0
LINE
8
front_outsideCutPath
10
23.125
20
6
11
31.375
21
6
0
LINE
8
front_outsideCutPath
10
31.375
20
6
11
31.375
21
3
0
LINE
8
front_outsideCutPath
10
31.375
20
3
11
38
21
3
0
LINE
8
front_outsideCutPath
10
38
20
3
11
38
21
10.875
0
LINE
8
front_outsideCutPath
10
38
20
10.875
11
35
21
10.875
0
LINE
8
front_outsideCutPath
10
35
20
10.875
11
35
21
19.125
0
LINE
8
front_outsideCutPath
10
35
20
19.125
11
38
21
19.125
0
LINE
8
front_outsideCutPath
10
38
20
19.125
11
38
21
27.375
0
LINE
8
front_outsideCutPath
10
38
20
27.375
11
35
21
27.375
0
LINE
8
front_outsideCutPath
10
35
20
27.375
11
35
21
35.625
0
LINE
8
front_outsideCutPath
10
35
20
35.625
11
38
21
35.625
0
LINE
8
front_outsideCutPath
10
38
20
35.625
11
38
21
43.875
0
LINE
8
front_outsideCutPath
10
38
20
43.875
11
35
21
43.875
0
LINE
8
front_outsideCutPath
10
35
20
43.875
11
35
21
52.125
0
LINE
8
front_outsideCutPath
10
35
20
52.125
11
38
21
52.125
0
LINE
8
front_outsideCutPath
10
38
20
52.125
11
38
21
60.375
0
LINE
8
front_outsideCutPath
10
38
20
60.375
11
35
21
60.375
0
LINE
8
front_outsideCutPath
10
35
20
60.375
11
35
21
68.625
0
LINE
8
front_outsideCutPath
10
35
20
68.625
11
38
21
68.625
0
LINE
8
front_outsideCutPath
10
38
20
68.625
11
38
21
76.875
0
LINE
8
front_outsideCutPath
10
38
20
76.875
11
35
21
76.875
0
LINE
8
front_outsideCutPath
10
35
20
76.875
11
35
21
85.125
0
LINE
8
front_outsideCutPath
10
35
20
85.125
11
38
21
85.125
0
LINE
8
front_outsideCutPath
10
38
20
85.125
11
38
21
93.375
0
LINE
8
front_outsideCutPath
10
38
20
93.375
11
35
21
93.375
0
LINE
8
front_outsideCutPath
10
35
20
93.375
11
35
21
101.625
0
LINE
8
front_outsideCutPath
10
35
20
101.625
11
38
21
101.625
0
LINE
8
front_outsideCutPath
10
38
20
101.625
11
38
21
109.875
0
LINE
8
front_outsideCutPath
10
38
20
109.875
11
35
21
109.875
0
LINE
8
front_outsideCutPath
10
35
20
109.875
11
35
21
118.125
0
LINE
8
front_outsideCutPath
10
35
20
118.125
11
38
21
118.125
0
LINE
8
front_outsideCutPath
10
38
20
118.125
11
38
21
126.375
0
LINE
8
front_outsideCutPath
10
38
20
126.375
11
35
21
126.375
0
LINE
8
front_outsideCutPath
10
35
20
126.375
11
35
21
134.625
0
LINE
8
front_outsideCutPath
10
35
20
134.625
11
38
21
134.625
0
LINE
8
front_outsideCutPath
10
38
20
134.625
11
38
21
142.875
0
LINE
8
front_outsideCutPath
10
38
20
142.875
11
35
21
142.875
0
LINE
8
front_outsideCutPath
10
35
20
142.875
11
35
21
151.125
0
LINE
8
front_outsideCutPath
10
35
20
151.125
11
38
21
151.125
0
LINE
8
front_outsideCutPath
10
38
20
151.125
11
38
21
159
0
LINE
8
front_outsideCutPath
10
38
20
159
11
31.375
21
159
0
LINE
8
front_outsideCutPath
10
31.375
20
159
11
31.375
21
156
0
LINE
8
front_outsideCutPath
10
31.375
20
156
11
23.125
21
156
0
LINE
8
front_outsideCutPath
10
23.125
20
156
11
23.125
21
159
0
LINE
8
front_outsideCutPath
10
23.125
20
159
11
14.875
21
159
0
LINE
8
front_outsideCutPath
10
14.875
20
159
11
14.875
21
156
0
LINE
8
front_outsideCutPath
10
14.875
20
156
11
6.625
21
156
0
LINE
8
front_outsideCutPath
10
6.625
20
156
11
6.625
21
159
0
LINE
8
front_outsideCutPath
10
6.625
20
159
11
0
21
159
0
LINE
8
left_outsideCutPath
10
44
20
159
11
44
21
151.125
0
LINE
8
left_outsideCutPath
10
44
20
151.125
11
41
21
151.125
0
LINE
8
left_outsideCutPath
10
41
20
151.125
11
41
21
142.875
0
LINE
8
left_outsideCutPath
10
41
20
142.875
11
44
21
142.875
0
LINE
8
left_outsideCutPath
10
44
20
142.875
11
44
21
134.625
0
LINE
8
left_outsideCutPath
10
44
20
134.625
11
41
21
134.625
0
LINE
8
left_outsideCutPath
10
41
20
134.625
11
41
21
126.375
0
LINE
8
left_outsideCutPath
10
41
20
126.375
11
44
21
126.375
0
LINE
8
left_outsideCutPath
10
44
20
126.375
11
44
21
118.125
0
LINE
8
left_outsideCutPath
10
44
20
118.125
11
41
21
118.125
0
LINE
8
left_outsideCutPath
10
41
20
118.125
11
41
21
109.875
0
LINE
8
left_outsideCutPath
10
41
20
109.875
11
44
21
109.875
0
LINE
8
left_outsideCutPath
10
44
20
109.875
11
44
21
101.625
0
LINE
8
left_outsideCutPath
10
44
20
101.625
11
41
21
101.625
0
LINE
8
left_outsideCutPath
10
41
20
101.625
11
41
21
93.375
0
LINE
8
left_outsideCutPath
10
41
20
93.375
11
44
21
93.375
0
LINE
8
left_outsideCutPath
10
44
20
93.375
11
44
21
85.125
0
LINE
8
left_outsideCutPath
10
44
20
85.125
11
41
21
85.125
0
LINE
8
left_outsideCutPath
10
41
20
85.125
11
41
21
76.875
0
LINE
8
left_outsideCutPath
10
41
20
76.875
11
44
21
76.875
0
LINE
8
left_outsideCutPath
10
44
20
76.875
11
44
21
68.625
0
LINE
8
left_outsideCutPath
10
44
20
68.625
11
41
21
68.625
0
LINE
8
left_outsideCutPath
10
41
20
68.625
11
41
21
60.375
0
LINE
8
left_outsideCutPath
10
41
20
60.375
11
44
21
60.375
0
LINE
8
left_outsideCutPath
10
44
20
60.375
11
44
21
52.125
0
LINE
8
left_outsideCutPath
10
44
20
52.125
11
41
21
52.125
0
LINE
8
left_outsideCutPath
10
41
20
52.125
11
41
21
43.875
0
LINE
8
left_outsideCutPath
10
41
20
43.875
11
44
21
43.875
0
LINE
8
left_outsideCutPath
10
44
20
43.875
11
44
21
35.625
0
LINE
8
left_outsideCutPath
10
44
20
35.625
11
41
21
35.625
0
LINE
8
left_outsideCutPath
10
41
20
35.625
11
41
21
27.375
0
LINE
8
left_outsideCutPath
10
41
20
27.375
11
44
21
27.375
0
LINE
8
left_outsideCutPath
10
44
20
27.375
11
44
21
19.125
0
LINE
8
left_outsideCutPath
10
44
20
19.125
11
41
21
19.125
0
LINE
8
left_outsideCutPath
10
41
20
19.125
11
41
21
10.875
0
LINE
8
left_outsideCutPath
10
41
20
10.875
11
44
21
10.875
0
LINE
8
left_outsideCutPath
10
44
20
10.875
11
44
21
3
0
LINE
8
left_outsideCutPath
10
44
20
3
11
47.625
21
3
0
LINE
8
left_outsideCutPath
10
47.625
20
3
11
47.625
21
6
0
LINE
8
left_outsideCutPath
10
47.625
20
6
11
55.875
21
6
0
LINE
8
left_outsideCutPath
10
55.875
20
6
11
55.875
21
3
0
LINE
8
left_outsideCutPath
10
55.875
20
3
11
64.125
21
3
0
LINE
8
left_outsideCutPath
10
64.125
20
3
11
64.125
21
6
0
LINE
8
left_outsideCutPath
10
64.125
20
6
11
72.375
21
6
0
LINE
8
left_outsideCutPath
10
72.375
20
6
11
72.375
21
3
0
LINE
8
left_outsideCutPath
10
72.375
20
3
11
76
21
3
0
LINE
8
left_outsideCutPath
10
76
20
3
11
76
21
10.875
0
LINE
8
left_outsideCutPath
10
76
20
10.875
11
79
21
10.875
0
LINE
8
left_outsideCutPath
10
79
20
10.875
11
79
21
19.125
0
LINE
8
left_outsideCutPath
10
79
20
19.125
11
76
21
19.125
0
LINE
8
left_outsideCutPath
10
76
20
19.125
11
76
21
27.375
0
LINE
8
left_outsideCutPath
10
76
20
27.375
11
79
21
27.375
0
LINE
8
left_outsideCutPath
10
79
20
27.375
11
79
21
35.625
0
LINE
8
left_outsideCutPath
10
79
20
35.625
11
76
21
35.625
0
LINE
8
left_outsideCutPath
10
76
20
35.625
11
76
21
43.875
0
LINE
8
left_outsideCutPath
10
76
20
43.875
11
79
21
43.875
0
LINE
8
left_outsideCutPath
10
79
20
43.875
11
79
21
52.125
0
LINE
8
left_outsideCutPath
10
79
20
52.125
11
76
21
52.125
0
LINE
8
left_outsideCutPath
10
76
20
52.125
11
76
21
60.375
0
LINE
8
left_outsideCutPath
10
76
20
60.375
11
79
21
60.375
0
LINE
8
left_outsideCutPath
10
79
20
60.375
11
79
21
68.625
0
LINE
8
left_outsideCutPath
10
79
20
68.625
11
76
21
68.625
0
LINE
8
left_outsideCutPath
10
76
20
68.625
11
76
21
76.875
0
LINE
8
left_outsideCutPath
10
76
20
76.875
11
79
21
76.875
0
LINE
8
left_outsideCutPath
10
79
20
76.875
11
79
21
85.125
0
LINE
8
left_outsideCutPath
10
79
20
85.125
11
76
21
85.125
0
LINE
8
left_outsideCutPath
10
76
20
85.125
11
76
21
93.375
0
LINE
8
left_outsideCutPath
10
76
20
93.375
11
79
21
93.375
0
LINE
8
left_outsideCutPath
10
79
20
93.375
11
79
21
101.625
0
LINE
8
left_outsideCutPath
10
79
20
101.625
11
76
21
101.625
0
LINE
8
left_outsideCutPath
10
76
20
101.625
11
76
21
109.875
0
LINE
8
left_outsideCutPath
10
76
20
109.875
11
79
21
109.875
0
LINE
8
left_outsideCutPath
10
79
20
109.875
11
79
21
118.125
0
LINE
8
left_outsideCutPath
10
79
20
118.125
11
76
21
118.125
0
LINE
8
left_outsideCutPath
10
76
20
118.125
11
76
21
126.375
0
LINE
8
left_outsideCutPath
10
76
20
126.375
11
79
21
126.375
0
LINE
8
left_outsideCutPath
10
79
20
126.375
11
79
21
134.625
0
LINE
8
left_outsideCutPath
10
79
20
134.625
11
76
21
134.625
0
LINE
8
left_outsideCutPath
10
76
20
134.625
11
76
21
142.875
0
LINE
8
left_outsideCutPath
10
76
20
142.875
11
79
21
142.875
0
LINE
8
left_outsideCutPath
10
79
20
142.875
11
79
21
151.125
0
LINE
8
left_outsideCutPath
10
79
20
151.125
11
76
21
151.125
0
LINE
8
left_outsideCutPath
10
76
20
151.125
11
76
21
159
0
LINE
8
left_outsideCutPath
10
76
20
159
11
72.375
21
159
0
LINE
8
left_outsideCutPath
10
72.375
20
159
11
72.375
21
156
0
LINE
8
left_outsideCutPath
10
72.375
20
156
11
64.125
21
156
0
LINE
8
left_outsideCutPath
10
64.125
20
156
11
64.125
21
159
0
LINE
8
left_outsideCutPath
10
64.125
20
159
11
55.875
21
159
0
LINE
8
left_outsideCutPath
10
55.875
20
159
11
55.875
21
156
0
LINE
8
left_outsideCutPath
10
55.875
20
156
11
47.625
21
156
0
LINE
8
left_outsideCutPath
10
47.625
20
156
11
47.625
21
159
0
LINE
8
left_outsideCutPath
10
47.625
20
159
11
44
21
159
0
LINE
8
top_outsideCutPath
10
85
20
38
11
85
21
34.375
0
LINE
8
top_outsideCutPath
10
85
20
34.375
11
82
21
34.375
0
LINE
8
top_outsideCutPath
10
82
20
34.375
11
82
21
26.125
0
LINE
8
top_outsideCutPath
10
82
20
26.125
11
85
21
26.125
0
LINE
8
top_outsideCutPath
10
85
20
26.125
11
85
21
17.875
0
LINE
8
top_outsideCutPath
10
85
20
17.875
11
82
21
17.875
0
LINE
8
top_outsideCutPath
10
82
20
17.875
11
82
21
9.625
0
LINE
8
top_outsideCutPath
10
82
20
9.625
11
85
21
9.625
0
LINE
8
top_outsideCutPath
10
85
20
9.625
11
85
21
6
0
LINE
8
top_outsideCutPath
10
85
20
6
11
88.625
21
6
0
LINE
8
top_outsideCutPath
10
88.625
20
6
11
88.625
21
3
0
LINE
8
top_outsideCutPath
10
88.625
20
3
11
96.875
21
3
0
LINE
8
top_outsideCutPath
10
96.875
20
3
11
96.875
21
6
0
LINE
8
top_outsideCutPath
10
96.875
20
6
11
105.125
21
6
0
LINE
8
top_outsideCutPath
10
105.125
20
6
11
105.125
21
3
0
LINE
8
top_outsideCutPath
10
105.125
20
3
11
113.375
21
3
0
LINE
8
top_outsideCutPath
10
113.375
20
3
11
113.375
21
6
0
LINE
8
top_outsideCutPath
10
113.375
20
6
11
117
21
6
0
LINE
8
top_outsideCutPath
10
117
20
6
11
117
21
9.625
0
LINE
8
top_outsideCutPath
10
117
20
9.625
11
120
21
9.625
0
LINE
8
top_outsideCutPath
10
120
20
9.625
11
120
21
17.875
0
LINE
8
top_outsideCutPath
10
120
20
17.875
11
117
21
17.875
0
LINE
8
top_outsideCutPath
10
117
20
17.875
11
117
21
26.125
0
LINE
8
top_outsideCutPath
10
117
20
26.125
11
120
21
26.125
0
LINE
8
top_outsideCutPath
10
120
20
26.125
11
120
21
34.375
0
LINE
8
top_outsideCutPath
10
120
20
34.375
11
117
21
34.375
0
LINE
8
top_outsideCutPath
10
117
20
34.375
11
117
21
38
0
LINE
8
top_outsideCutPath
10
117
20
38
11
113.375
21
38
0
LINE
8
top_outsideCutPath
10
113.375
20
38
11
113.375
21
41
0
LINE
8
top_outsideCutPath
10
113.375
20
41
11
105.125
21
41
0
LINE
8
top_outsideCutPath
10
105.125
20
41
11
105.125
21
38
0
LINE
8
top_outsideCutPath
10
105.125
20
38
11
96.875
21
38
0
LINE
8
top_outsideCutPath
10
96.875
20
38
11
96.875
21
41
0
LINE
8
top_outsideCutPath
10
96.875
20
41
11
88.625
21
41
0
LINE
8
top_outsideCutPath
10
88.625
20
41
11
88.625
21
38
0
LINE
8
top_outsideCutPath
10
88.625
20
38
11
85
21
38
0
LINE
8
back_outsideCutPath
10
0
20
318
11
0
21
310.125
0
LINE
8
back_outsideCutPath
10
0
20
310.125
11
3
21
310.125
0
LINE
8
back_outsideCutPath
10
3
20
310.125
11
3
21
301.875
0
LINE
8
back_outsideCutPath
10
3
20
301.875
11
0
21
301.875
0
LINE
8
back_outsideCutPath
10
0
20
301.875
11
0
21
293.625
0
LINE
8
back_outsideCutPath
10
0
20
293.625
11
3
21
293.625
0
LINE
8
back_outsideCutPath
10
3
20
293.625
11
3
21
285.375
0
LINE
8
back_outsideCutPath
10
3
20
285.375
11
0
21
285.375
0
LINE
8
back_outsideCutPath
10
0
20
285.375
11
0
21
277.125
0
LINE
8
back_outsideCutPath
10
0
20
277.125
11
3
21
277.125
0
LINE
8
back_outsideCutPath
10
3
20
277.125
11
3
21
268.875
0
LINE
8
back_outsideCutPath
10
3
20
268.875
11
0
21
268.875
0
LINE
8
back_outsideCutPath
10
0
20
268.875
11
0
21
260.625
0
LINE
8
back_outsideCutPath
10
0
20
260.625
11
3
21
260.625
0
LINE
8
back_outsideCutPath
10
3
20
260.625
11
3
21
252.375
0
LINE
8
back_outsideCutPath
10
3
20
252.375
11
0
21
252.375
0
LINE
8
back_outsideCutPath
10
0
20
252.375
11
0
21
244.125
0
LINE
8
back_outsideCutPath
10
0
20
244.125
11
3
21
244.125
0
LINE
8
back_outsideCutPath
10
3
20
244.125
11
3
21
235.875
0
LINE
8
back_outsideCutPath
10
3
20
235.875
11
0
21
235.875
0
LINE
8
back_outsideCutPath
10
0
20
235.875
11
0
21
227.625
0
LINE
8
back_outsideCutPath
10
0
20
227.625
11
3
21
227.625
0
LINE
8
back_outsideCutPath
10
3
20
227.625
11
3
21
219.375
0
LINE
8
back_outsideCutPath
10
3
20
219.375
11
0
21
219.375
0
LINE
8
back_outsideCutPath
10
0
20
219.375
11
0
21
211.125
0
LINE
8
back_outsideCutPath
10
0
20
211.125
11
3
21
211.125
0
LINE
8
back_outsideCutPath
10
3
20
211.125
11
3
21
202.875
0
LINE
8
back_outsideCutPath
10
3
20
202.875
11
0
21
202.875
0
LINE
8
back_outsideCutPath
10
0
20
202.875
11
0
21
194.625
0
LINE
8
back_outsideCutPath
10
0
20
194.625
11
3
21
194.625
0
LINE
8
back_outsideCutPath
10
3
20
194.625
11
3
21
186.375
0
LINE
8
back_outsideCutPath
10
3
20
186.375
11
0
21
186.375
0
LINE
8
back_outsideCutPath
10
0
20
186.375
11
0
21
178.125
0
LINE
8
back_outsideCutPath
10
0
20
178.125
11
3
21
178.125
0
LINE
8
back_outsideCutPath
10
3
20
178.125
11
3
21
169.875
0
LINE
8
back_outsideCutPath
10
3
20
169.875
11
0
21
169.875
0
LINE
8
back_outsideCutPath
10
0
20
169.875
11
0
21
162
0
LINE
8
back_outsideCutPath
10
0
20
162
11
6.625
21
162
0
LINE
8
back_outsideCutPath
10
6.625
20
162
11
6.625
21
165
0
LINE
8
back_outsideCutPath
10
6.625
20
165
11
14.875
21
165
0
LINE
8
back_outsideCutPath
10
14.875
20
165
11
14.875
21
162
0
LINE
8
back_outsideCutPath
10
14.875
20
162
11
23.125
21
162
0
LINE
8
back_outsideCutPath
10
23.125
20
162
11
23.125
21
165
0
LINE
8
back_outsideCutPath
10
23.125
20
165
11
31.375
21
165
0
LINE
8
back_outsideCutPath
10
31.375
20
165
11
31.375
21
162
0
LINE
8
back_outsideCutPath
10
31.375
20
162
11
38
21
162
0
LINE
8
back_outsideCutPath
10
38
20
162
11
38
21
169.875
0
LINE
8
back_outsideCutPath
10
38
20
169.875
11
35
21
169.875
0
LINE
8
back_outsideCutPath
10
35
20
169.875
11
35
21
178.125
0
LINE
8
back_outsideCutPath
10
35
20
178.125
11
38
21
178.125
0
LINE
8
back_outsideCutPath
10
38
20
178.125
11
38
21
186.375
0
LINE
8
back_outsideCutPath
10
38
20
186.375
11
35
21
186.375
0
LINE
8
back_outsideCutPath
10
35
20
186.375
11
35
21
194.625
0
LINE
8
back_outsideCutPath
10
35
20
194.625
11
38
21
194.625
0
LINE
8
back_outsideCutPath
10
38
20
194.625
11
38
21
202.875
0
LINE
8
back_outsideCutPath
10
38
20
202.875
11
35
21
202.875
0
LINE
8
back_outsideCutPath
10
35
20
202.875
11
35
21
211.125
0
LINE
8
back_outsideCutPath
10
35
20
211.125
11
38
21
211.125
0
LINE
8
back_outsideCutPath
10
38
20
211.125
11
38
21
219.375
0
LINE
8
back_outsideCutPath
10
38
20
219.375
11
35
21
219.375
0
LINE
8
back_outsideCutPath
10
35
20
219.375
11
35
21
227.625
0
LINE
8
back_outsideCutPath
10
35
20
227.625
11
38
21
227.625
0
LINE
8
back_outsideCutPath
10
38
20
227.625
11
38
21
235.875
0
LINE
8
back_outsideCutPath
10
38
20
235.875
11
35
21
235.875
0
LINE
8
back_outsideCutPath
10
35
20
235.875
11
35
21
244.125
0
LINE
8
back_outsideCutPath
10
35
20
244.125
11
38
21
244.125
0
LINE
8
back_outsideCutPath
10
38
20
244.125
11
38
21
252.375
0
LINE
8
back_outsideCutPath
10
38
20
252.375
11
35
21
252.375
0
LINE
8
back_outsideCutPath
10
35
20
252.375
11
35
21
260.625
0
LINE
8
back_outsideCutPath
10
35
20
260.625
11
38
21
260.625
0
LINE
8
back_outsideCutPath
10
38
20
260.625
11
38
21
268.875
0
LINE
8
back_outsideCutPath
10
38
20
268.875
11
35
21
268.875
0
LINE
8
back_outsideCutPath
10
35
20
268.875
11
35
21
277.125
0
LINE
8
back_outsideCutPath
10
35
20
277.125
11
38
21
277.125
0
LINE
8
back_outsideCutPath
10
38
20
277.125
11
38
21
285.375
0
LINE
8
back_outsideCutPath
10
38
20
285.375
11
35
21
285.375
0
LINE
8
back_outsideCutPath
10
35
20
285.375
11
35
21
293.625
0
LINE
8
back_outsideCutPath
10
35
20
293.625
11
38
21
293.625
0
LINE
8
back_outsideCutPath
10
38
20
293.625
11
38
21
301.875
0
LINE
8
back_outsideCutPath
10
38
20
301.875
11
35
21
301.875
0
LINE
8
back_outsideCutPath
10
35
20
301.875
11
35
21
310.125
0
LINE
8
back_outsideCutPath
10
35
20
310.125
11
38
21
310.125
0
LINE
8
back_outsideCutPath
10
38
20
310.125
11
38
21
318
0
LINE
8
back_outsideCutPath
10
38
20
318
11
31.375
21
318
0
LINE
8
back_outsideCutPath
10
31.375
20
318
11
31.375
21
315
0
LINE
8
back_outsideCutPath
10
31.375
20
315
11
23.125
21
315
0
LINE
8
back_outsideCutPath
10
23.125
20
315
11
23.125
21
318
0
LINE
8
back_outsideCutPath
10
23.125
20
318
11
14.875
21
318
0
LINE
8
back_outsideCutPath
10
14.875
20
318
11
14.875
21
315
0
LINE
8
back_outsideCutPath
10
14.875
20
315
11
6.625
21
315
0
LINE
8
back_outsideCutPath
10
6.625
20
315
11
6.625
21
318
0
LINE
8
back_outsideCutPath
10
6.625
20
318
11
0
21
318
0
LINE
8
right_outsideCutPath
10
44
20
318
11
44
21
310.125
0
LINE
8
right_outsideCutPath
10
44
20
310.125
11
41
21
310.125
0
LINE
8
right_outsideCutPath
10
41
20
310.125
11
41
21
301.875
0
LINE
8
right_outsideCutPath
10
41
20
301.875
11
44
21
301.875
0
LINE
8
right_outsideCutPath
10
44
20
301.875
11
44
21
293.625
0
LINE
8
right_outsideCutPath
10
44
20
293.625
11
41
21
293.625
0
LINE
8
right_outsideCutPath
10
41
20
293.625
11
41
21
285.375
0
LINE
8
right_outsideCutPath
10
41
20
285.375
11
44
21
285.375
0
LINE
8
right_outsideCutPath
10
44
20
285.375
11
44
21
277.125
0
LINE
8
right_outsideCutPath
10
44
20
277.125
11
41
21
277.125
0
LINE
8
right_outsideCutPath
10
41
20
277.125
11
41
21
268.875
0
LINE
8
right_outsideCutPath
10
41
20
268.875
11
44
21
268.875
0
LINE
8
right_outsideCutPath
10
44
20
268.875
11
44
21
260.625
0
LINE
8
right_outsideCutPath
10
44
20
260.625
11
41
21
260.625
0
LINE
8
right_outsideCutPath
10
41
20
260.625
11
41
21
252.375
0
LINE
8
right_outsideCutPath
10
41
20
252.375
11
44
21
252.375
0
LINE
8
right_outsideCutPath
10
44
20
252.375
11
44
21
244.125
0
LINE
8
right_outsideCutPath
10
44
20
244.125
11
41
21
244.125
0
LINE
8
right_outsideCutPath
10
41
20
244.125
11
41
21
235.875
0
LINE
8
right_outsideCutPath
10
41
20
235.875
11
44
21
235.875
0
LINE
8
right_outsideCutPath
10
44
20
235.875
11
44
21
227.625
0
LINE
8
right_outsideCutPath
10
44
20
227.625
11
41
21
227.625
0
LINE
8
right_outsideCutPath
10
41
20
227.625
11
41
21
219.375
0
LINE
8
right_outsideCutPath
10
41
20
219.375
11
44
21
219.375
0
LINE
8
right_outsideCutPath
10
44
20
219.375
11
44
21
211.125
0
LINE
8
right_outsideCutPath
10
44
20
211.125
11
41
21
211.125
0
LINE
8
right_outsideCutPath
10
41
20
211.125
11
41
21
202.875
0
LINE
8
right_outsideCutPath
10
41
20
202.875
11
44
21
202.875
0
LINE
8
right_outsideCutPath
10
44
20
202.875
11
44
21
194.625
0
LINE
8
right_outsideCutPath
10
44
20
194.625
11
41
21
194.625
0
LINE
8
right_outsideCutPath
10
41
20
194.625
11
41
21
186.375
0
LINE
8
right_outsideCutPath
10
41
20
186.375
11
44
21
186.375
0
LINE
8
right_outsideCutPath
10
44
20
186.375
11
44
21
178.125
0
LINE
8
right_outsideCutPath
10
44
20
178.125
11
41
21
178.125
0
LINE
8
right_outsideCutPath
10
41
20
178.125
11
41
21
169.875
0
LINE
8
right_outsideCutPath
10
41
20
169.875
11
44
21
169.875
0
LINE
8
right_outsideCutPath
10
44
20
169.875
11
44
21
162
0
LINE
8
right_outsideCutPath
10
44
20
162
11
47.625
21
162
0
LINE
8
right_outsideCutPath
10
47.625
20
162
11
47.625
21
165
0
LINE
8
right_outsideCutPath
10
47.625
20
165
11
55.875
21
165
0
LINE
8
right_outsideCutPath
10
55.875
20
165
11
55.875
21
162
0
LINE
8
right_outsideCutPath
10
55.875
20
162
11
64.125
21
162
0
LINE
8
right_outsideCutPath
10
64.125
20
162
11
64.125
21
165
0
LINE
8
right_outsideCutPath
10
64.125
20
165
11
72.375
21
165
0
LINE
8
right_outsideCutPath
10
72.375
20
165
11
72.375
21
162
0
LINE
8
right_outsideCutPath
10
72.375
20
162
11
76
21
162
0
LINE
8
right_outsideCutPath
10
76
20
162
11
76
21
169.875
0
LINE
8
right_outsideCutPath
10
76
20
169.875
11
79
21
169.875
0
LINE
8
right_outsideCutPath
10
79
20
169.875
11
79
21
178.125
0
LINE
8
right_outsideCutPath
10
79
20
178.125
11
76
21
178.125
0
LINE
8
right_outsideCutPath
10
76
20
178.125
11
76
21
186.375
0
LINE
8
right_outsideCutPath
10
76
20
186.375
11
79
21
186.375
0
LINE
8
right_outsideCutPath
10
79
20
186.375
11
79
21
194.625
0
LINE
8
right_outsideCutPath
10
79
20
194.625
11
76
21
194.625
0
LINE
8
right_outsideCutPath
10
76
20
194.625
11
76
21
202.875
0
LINE
8
right_outsideCutPath
10
76
20
202.875
11
79
21
202.875
0
LINE
8
right_outsideCutPath
10
79
20
202.875
11
79
21
211.125
0
LINE
8
right_outsideCutPath
10
79
20
211.125
11
76
21
211.125
0
LINE
8
right_outsideCutPath
10
76
20
211.125
11
76
21
219.375
0
LINE
8
right_outsideCutPath
10
76
20
219.375
11
79
21
219.375
0
LINE
8
right_outsideCutPath
10
79
20
219.375
11
79
21
227.625
0
LINE
8
right_outsideCutPath
10
79
20
227.625
11
76
21
227.625
0
LINE
8
right_outsideCutPath
10
76
20
227.625
11
76
21
235.875
0
LINE
8
right_outsideCutPath
10
76
20
235.875
11
79
21
235.875
0
LINE
8
right_outsideCutPath
10
79
20
235.875
11
79
21
244.125
0
LINE
8
right_outsideCutPath
10
79
20
244.125
11
76
21
244.125
0
LINE
8
right_outsideCutPath
10
76
20
244.125
11
76
21
252.375
0
LINE
8
right_outsideCutPath
10
76
20
252.375
11
79
21
252.375
0
LINE
8
right_outsideCutPath
10
79
20
252.375
11
79
21
260.625
0
LINE
8
right_outsideCutPath
10
79
20
260.625
11
76
21
260.625
0
LINE
8
right_outsideCutPath
10
76
20
260.625
11
76
21
268.875
0
LINE
8
right_outsideCutPath
10
76
20
268.875
11
79
21
268.875
0
LINE
8
right_outsideCutPath
10
79
20
268.875
11
79
21
277.125
0
LINE
8
right_outsideCutPath
10
79
20
277.125
11
76
21
277.125
0
LINE
8
right_outsideCutPath
10
76
20
277.125
11
76
21
285.375
0
LINE
8
right_outsideCutPath
10
76
20
285.375
11
79
21
285.375
0
LINE
8
right_outsideCutPath
10
79
20
285.375
11
79
21
293.625
0
LINE
8
right_outsideCutPath
10
79
20
293.625
11
76
21
293.625
0
LINE
8
right_outsideCutPath
10
76
20
293.625
11
76
21
301.875
0
LINE
8
right_outsideCutPath
10
76
20
301.875
11
79
21
301.875
0
LINE
8
right_outsideCutPath
10
79
20
301.875
11
79
21
310.125
0
LINE
8
right_outsideCutPath
10
79
20
310.125
11
76
21
310.125
0
LINE
8
right_outsideCutPath
10
76
20
310.125
11
76
21
318
0
LINE
8
right_outsideCutPath
10
76
20
318
11
72.375
21
318
0
LINE
8
right_outsideCutPath
10
72.375
20
318
11
72.375
21
315
0
LINE
8
right_outsideCutPath
10
72.375
20
315
11
64.125
21
315
0
LINE
8
right_outsideCutPath
10
64.125
20
315
11
64.125
21
318
0
LINE
8
right_outsideCutPath
10
64.125
20
318
11
55.875
21
318
0
LINE
8
right_outsideCutPath
10
55.875
20
318
11
55.875
21
315
0
LINE
8
right_outsideCutPath
10
55.875
20
315
11
47.625
21
315
0
LINE
8
right_outsideCutPath
10
47.625
20
315
11
47.625
21
318
0
LINE
8
right_outsideCutPath
10
47.625
20
318
11
44
21
318
0
LINE
8
bottom_outsideCutPath
10
85
20
79
11
85
21
75.375
0
LINE
8
bottom_outsideCutPath
10
85
20
75.375
11
82
21
75.375
0
LINE
8
bottom_outsideCutPath
10
82
20
75.375
11
82
21
67.125
0
LINE
8
bottom_outsideCutPath
10
82
20
67.125
11
85
21
67.125
0
LINE
8
bottom_outsideCutPath
10
85
20
67.125
11
85
21
58.875
0
LINE
8
bottom_outsideCutPath
10
85
20
58.875
11
82
21
58.875
0
LINE
8
bottom_outsideCutPath
10
82
20
58.875
11
82
21
50.625
0
LINE
8
bottom_outsideCutPath
10
82
20
50.625
11
85
21
50.625
0
LINE
8
bottom_outsideCutPath
10
85
20
50.625
11
85
21
47
0
LINE
8
bottom_outsideCutPath
10
85
20
47
11
88.625
21
47
0
LINE
8
bottom_outsideCutPath
10
88.625
20
47
11
88.625
21
44
0
LINE
8
bottom_outsideCutPath
10
88.625
20
44
11
96.875
21
44
0
LINE
8
bottom_outsideCutPath
10
96.875
20
44
11
96.875
21
47
0
LINE
8
bottom_outsideCutPath
10
96.875
20
47
11
105.125
21
47
0
LINE
8
bottom_outsideCutPath
10
105.125
20
47
11
105.125
21
44
0
LINE
8
bottom_outsideCutPath
10
105.125
20
44
11
113.375
21
44
0
LINE
8
bottom_outsideCutPath
10
113.375
20
44
11
113.375
21
47
0
LINE
8
bottom_outsideCutPath
10
113.375
20
47
11
117
21
47
0
LINE
8
bottom_outsideCutPath
10
117
20
47
11
117
21
50.625
0
LINE
8
bottom_outsideCutPath
10
117
20
50.625
11
120
21
50.625
0
LINE
8
bottom_outsideCutPath
10
120
20
50.625
11
120
21
58.875
0
LINE
8
bottom_outsideCutPath
10
120
20
58.875
11
117
21
58.875
0
LINE
8
bottom_outsideCutPath
10
117
20
58.875
11
117
21
67.125
0
LINE
8
bottom_outsideCutPath
10
117
20
67.125
11
120
21
67.125
0
LINE
8
bottom_outsideCutPath
10
120
20
67.125
11
120
21
75.375
0
LINE
8
bottom_outsideCutPath
10
120
20
75.375
11
117
21
75.375
0
LINE
8
bottom_outsideCutPath
10
117
20
75.375
11
117
21
79
0
LINE
8
bottom_outsideCutPath
10
117
20
79
11
113.375
21
79
0
LINE
8
bottom_outsideCutPath
10
113.375
20
79
11
113.375
21
82
0
LINE
8
bottom_outsideCutPath
10
113.375
20
82
11
105.125
21
82
0
LINE
8
bottom_outsideCutPath
10
105.125
20
82
11
105.125
21
79
0
LINE
8
bottom_outsideCutPath
10
105.125
20
79
11
96.875
21
79
0
LINE
8
bottom_outsideCutPath
10
96.875
20
79
11
96.875
21
82
0
LINE
8
bottom_outsideCutPath
10
96.875
20
82
11
88.625
21
82
0
LINE
8
bottom_outsideCutPath
10
88.625
20
82
11
88.625
21
79
0
LINE
8
bottom_outsideCutPath
10
88.625
20
79
11
85
21
79
0
ENDSEC
0
EOF