<svg width="120mm" height="315mm" viewBox="0 0 120 315" xmlns="http://www.w3.org/2000/svg" version="1.1" preserveAspectRatio="xMidYMid meet"><g id="svgGroup" stroke-linecap="round" fill-rule="evenodd" font-size="9pt" stroke="#000" stroke-width="0.25mm" fill="none" style="stroke:#000;stroke-width:0.25mm;fill:none"><path d="M 0 159 L 0 166.875 L 3 166.875 L 3 175.125 L 0 175.125 L 0 183.375 L 3 183.375 L 3 191.625 L 0 191.625 L 0 199.875 L 3 199.875 L 3 208.125 L 0 208.125 L 0 216.375 L 3 216.375 L 3 224.625 L 0 224.625 L 0 232.875 L 3 232.875 L 3 241.125 L 0 241.125 L 0 249.375 L 3 249.375 L 3 257.625 L 0 257.625 L 0 265.875 L 3 265.875 L 3 274.125 L 0 274.125 L 0 282.375 L 3 282.375 L 3 290.625 L 0 290.625 L 0 298.875 L 3 298.875 L 3 307.125 L 0 307.125 L 0 315 L 6.625 315 L 6.625 312 L 14.875 312 L 14.875 315 L 23.125 315 L 23.125 312 L 31.375 312 L 31.375 315 L 38 315 L 38 307.125 L 35 307.125 L 35 298.875 L 38 298.875 L 38 290.625 L 35 290.625 L 35 282.375 L 38 282.375 L 38 274.125 L 35 274.125 L 35 265.875 L 38 265.875 L 38 257.625 L 35 257.625 L 35 249.375 L 38 249.375 L 38 241.125 L 35 241.125 L 35 232.875 L 38 232.875 L 38 224.625 L 35 224.625 L 35 216.375 L 38 216.375 L 38 208.125 L 35 208.125 L 35 199.875 L 38 199.875 L 38 191.625 L 35 191.625 L 35 183.375 L 38 183.375 L 38 175.125 L 35 175.125 L 35 166.875 L 38 166.875 L 38 159 L 31.375 159 L 31.375 162 L 23.125 162 L 23.125 159 L 14.875 159 L 14.875 162 L 6.625 162 L 6.625 159 L 0 159 Z" id="front_outsideCutPath" stroke="#000000" stroke-width="1" style="stroke:#000000;stroke-width:1" vector-effect="non-scaling-stroke"/><path d="M 44 159 L 44 166.875 L 41 166.875 L 41 175.125 L 44 175.125 L 44 183.375 L 41 183.375 L 41 191.625 L 44 191.625 L 44 199.875 L 41 199.875 L 41 208.125 L 44 208.125 L 44 216.375 L 41 216.375 L 41 224.625 L 44 224.625 L 44 232.875 L 41 232.875 L 41 241.125 L 44 241.125 L 44 249.375 L 41 249.375 L 41 257.625 L 44 257.625 L 44 265.875 L 41 265.875 L 41 274.125 L 44 274.125 L 44 282.375 L 41 282.375 L 41 290.625 L 44 290.625 L 44 298.875 L 41 298.875 L 41 307.125 L 44 307.125 L 44 315 L 47.625 315 L 47.625 312 L 55.875 312 L 55.875 315 L 64.125 315 L 64.125 312 L 72.375 312 L 72.375 315 L 76 315 L 76 307.125 L 79 307.125 L 79 298.875 L 76 298.875 L 76 290.625 L 79 290.625 L 79 282.375 L 76 282.375 L 76 274.125 L 79 274.125 L 79 265.875 L 76 265.875 L 76 257.625 L 79 257.625 L 79 249.375 L 76 249.375 L 76 241.125 L 79 241.125 L 79 232.875 L 76 232.875 L 76 224.625 L 79 224.625 L 79 216.375 L 76 216.375 L 76 208.125 L 79 208.125 L 79 199.875 L 76 199.875 L 76 191.625 L 79 191.625 L 79 183.375 L 76 183.375 L 76 175.125 L 79 175.125 L 79 166.875 L 76 166.875 L 76 159 L 72.375 159 L 72.375 162 L 64.125 162 L 64.125 159 L 55.875 159 L 55.875 162 L 47.625 162 L 47.625 159 L 44 159 Z" id="left_outsideCutPath" stroke="#000000" stroke-width="1" style="stroke:#000000;stroke-width:1" vector-effect="non-scaling-stroke"/><path d="M 85 280 L 85 283.625 L 82 283.625 L 82 291.875 L 85 291.875 L 85 300.125 L 82 300.125 L 82 308.375 L 85 308.375 L 85 312 L 88.625 312 L 88.625 315 L 96.875 315 L 96.875 312 L 105.125 312 L 105.125 315 L 113.375 315 L 113.375 312 L 117 312 L 117 308.375 L 120 308.375 L 120 300.125 L 117 300.125 L 117 291.875 L 120 291.875 L 120 283.625 L 117 283.625 L 117 280 L 113.375 280 L 113.375 277 L 105.125 277 L 105.125 280 L 96.875 280 L 96.875 277 L 88.625 277 L 88.625 280 L 85 280 Z" id="top_outsideCutPath" stroke="#000000" stroke-width="1" style="stroke:#000000;stroke-width:1" vector-effect="non-scaling-stroke"/><path d="M 0 0 L 0 7.875 L 3 7.875 L 3 16.125 L 0 16.125 L 0 24.375 L 3 24.375 L 3 32.625 L 0 32.625 L 0 40.875 L 3 40.875 L 3 49.125 L 0 49.125 L 0 57.375 L 3 57.375 L 3 65.625 L 0 65.625 L 0 73.875 L 3 73.875 L 3 82.125 L 0 82.125 L 0 90.375 L 3 90.375 L 3 98.625 L 0 98.625 L 0 106.875 L 3 106.875 L 3 115.125 L 0 115.125 L 0 123.375 L 3 123.375 L 3 131.625 L 0 131.625 L 0 139.875 L 3 139.875 L 3 148.125 L 0 148.125 L 0 156 L 6.625 156 L 6.625 153 L 14.875 153 L 14.875 156 L 23.125 156 L 23.125 153 L 31.375 153 L 31.375 156 L 38 156 L 38 148.125 L 35 148.125 L 35 139.875 L 38 139.875 L 38 131.625 L 35 131.625 L 35 123.375 L 38 123.375 L 38 115.125 L 35 115.125 L 35 106.875 L 38 106.875 L 38 98.625 L 35 98.625 L 35 90.375 L 38 90.375 L 38 82.125 L 35 82.125 L 35 73.875 L 38 73.875 L 38 65.625 L 35 65.625 L 35 57.375 L 38 57.375 L 38 49.125 L 35 49.125 L 35 40.875 L 38 40.875 L 38 32.625 L 35 32.625 L 35 24.375 L 38 24.375 L 38 16.125 L 35 16.125 L 35 7.875 L 38 7.875 L 38 0 L 31.375 0 L 31.375 3 L 23.125 3 L 23.125 0 L 14.875 0 L 14.875 3 L 6.625 3 L 6.625 0 L 0 0 Z" id="back_outsideCutPath" stroke="#000000" stroke-width="1" style="stroke:#000000;stroke-width:1" vector-effect="non-scaling-stroke"/><path d="M 44 0 L 44 7.875 L 41 7.875 L 41 16.125 L 44 16.125 L 44 24.375 L 41 24.375 L 41 32.625 L 44 32.625 L 44 40.875 L 41 40.875 L 41 49.125 L 44 49.125 L 44 57.375 L 41 57.375 L 41 65.625 L 44 65.625 L 44 73.875 L 41 73.875 L 41 82.125 L 44 82.125 L 44 90.375 L 41 90.375 L 41 98.625 L 44 98.625 L 44 106.875 L 41 106.875 L 41 115.125 L 44 115.125 L 44 123.375 L 41 123.375 L 41 131.625 L 44 131.625 L 44 139.875 L 41 139.875 L 41 148.125 L 44 148.125 L 44 156 L 47.625 156 L 47.625 153 L 55.875 153 L 55.875 156 L 64.125 156 L 64.125 153 L 72.375 153 L 72.375 156 L 76 156 L 76 148.125 L 79 148.125 L 79 139.875 L 76 139.875 L 76 131.625 L 79 131.625 L 79 123.375 L 76 123.375 L 76 115.125 L 79 115.125 L 79 106.875 L 76 106.875 L 76 98.625 L 79 98.625 L 79 90.375 L 76 90.375 L 76 82.125 L 79 82.125 L 79 73.875 L 76 73.875 L 76 65.625 L 79 65.625 L 79 57.375 L 76 57.375 L 76 49.125 L 79 49.125 L 79 40.875 L 76 40.875 L 76 32.625 L 79 32.625 L 79 24.375 L 76 24.375 L 76 16.125 L 79 16.125 L 79 7.875 L 76 7.875 L 76 0 L 72.375 0 L 72.375 3 L 64.125 3 L 64.125 0 L 55.875 0 L 55.875 3 L 47.625 3 L 47.625 0 L 44 0 Z" id="right_outsideCutPath" stroke="#000000" stroke-width="1" style="stroke:#000000;stroke-width:1" vector-effect="non-scaling-stroke"/><path d="M 85 239 L 85 242.625 L 82 242.625 L 82 250.875 L 85 250.875 L 85 259.125 L 82 259.125 L 82 267.375 L 85 267.375 L 85 271 L 88.625 271 L 88.625 274 L 96.875 274 L 96.875 271 L 105.125 271 L 105.125 274 L 113.375 274 L 113.375 271 L 117 271 L 117 267.375 L 120 267.375 L 120 259.125 L 117 259.125 L 117 250.875 L 120 250.875 L 120 242.625 L 117 242.625 L 117 239 L 113.375 239 L 113.375 236 L 105.125 236 L 105.125 239 L 96.875 239 L 96.875 236 L 88.625 236 L 88.625 239 L 85 239 Z" id="bottom_outsideCutPath" stroke="#000000" stroke-width="1" style="stroke:#000000;stroke-width:1" vector-effect="non-scaling-stroke"/></g></svg>